<?xml version="1.0" encoding="UTF-8" standalone="no"?>

<!DOCTYPE svg PUBLIC "-//W3C//DTD SVG 1.1//EN"
"http://www.w3.org/Graphics/SVG/1.1/DTD/svg11.dtd">


<!-- Page 1 -->

<svg x="0" y="0" width="398" height="225" viewBox="0 0 398 225" version="1.1" xmlns="http://www.w3.org/2000/svg" xmlns:xlink="http://www.w3.org/1999/xlink"
style="display: block;margin-left: auto;margin-right: auto;">
<defs>

<style type="text/css"><![CDATA[

.g0_1{
fill: #57585A;
}
.g1_1{
fill: #B8282E;
}
.g2_1{
fill: #231F20;
}
.g3_1{
fill: #3F3F40;
}
.g4_1{
fill: #6D6E71;
}
.g5_1{
fill: #E7E8E9;
}
.g6_1{
fill: #C8242B;
}
.g7_1{
fill: #DB2128;
}
.g8_1{
fill: #EE1D23;
}
.g9_1{
fill: #EE1A2E;
}


]]></style>

</defs>
<path d="M0,0
L0,225
L398,225
L398,0 Z " 
fill="#FFFFFF" stroke="none" />
<path d="M169,163.1c-.1,0,-.2,0,-.4,0c-.1,0,-.2,0,-.3,0v-.8c.1,0,.2,0,.4,0c.1,0,.2,0,.3,0h1.3v-1.5c0,-.2,0,-.4,0,-.7c0,-.2,-.1,-.4,-.1,-.7h1c-.1,.3,-.1,.5,-.1,.7c0,.3,0,.5,0,.7v6.7c0,.2,0,.5,0,.7c0,.3,0,.5,.1,.7h-1c0,-.2,.1,-.4,.1,-.7c0,-.2,0,-.5,0,-.7v-4.4Zm-2.3,-1.4c0,.5,.1,1,.2,1.4c.1,.4,.2,.8,.4,1.2c.3,.4,.5,.7,.8,1c.4,.4,.7,.7,1.2,.9c-.2,.1,-.3,.2,-.4,.3c-.1,.2,-.2,.3,-.3,.3c-.2,-.1,-.4,-.3,-.6,-.5c-.3,-.2,-.5,-.4,-.7,-.6c-.2,-.3,-.4,-.6,-.6,-.9c-.1,-.3,-.3,-.6,-.4,-.9c-.1,.3,-.2,.6,-.4,.9c-.1,.3,-.3,.6,-.5,.9c-.2,.3,-.5,.5,-.7,.8c-.2,.2,-.5,.4,-.7,.6c-.1,-.1,-.2,-.2,-.4,-.3c-.1,-.1,-.2,-.2,-.4,-.3c.5,-.3,.8,-.6,1.2,-1c.3,-.3,.6,-.7,.8,-1.1c.2,-.4,.4,-.9,.5,-1.3c.1,-.5,.2,-1,.2,-1.5v-.7c0,-.2,0,-.3,-.1,-.5c0,-.2,0,-.4,0,-.6h1c0,.2,0,.4,-.1,.6c0,.2,0,.3,0,.5Z" class="g0_1" />
<path d="M174.9,161.7c.5,.2,1,.3,1.7,.3c.7,0,1.3,-.1,1.7,-.3c.4,-.1,.7,-.4,.7,-.7c0,-.3,-.3,-.5,-.7,-.7c-.4,-.2,-1,-.3,-1.7,-.3c-.7,0,-1.2,.1,-1.7,.3c-.4,.2,-.6,.4,-.6,.7c0,.3,.2,.6,.6,.7m-.7,.5c-.5,-.3,-.8,-.7,-.8,-1.2c0,-.5,.3,-.8,.8,-1.2c.6,-.3,1.4,-.4,2.4,-.4c1.1,0,1.9,.1,2.4,.4c.6,.4,.9,.8,.9,1.2c0,.5,-.3,.9,-.9,1.2c-.5,.3,-1.3,.4,-2.4,.4c-1,0,-1.8,-.1,-2.4,-.4m5.6,2.7c0,.2,-.1,.3,-.1,.5c0,.1,0,.2,0,.3v1.5h-5.2v1h5c.1,0,.3,-.1,.4,-.1v.8c-.1,0,-.3,0,-.4,0c-.2,0,-.3,-.1,-.5,-.1h-5.4v-2.3h5.2v-.9h-4.4c-.1,0,-.3,0,-.4,.1c-.2,0,-.3,0,-.4,0v-.8c.1,0,.3,0,.4,0c.1,0,.3,0,.4,0h1.8V164H174c-.3,0,-.5,0,-.8,0c-.2,0,-.5,.1,-.8,.1v-.8c.3,0,.6,0,.8,0c.3,0,.5,0,.8,0h5.3c.3,0,.5,0,.8,0c.2,0,.5,0,.7,0v.8c-.2,0,-.5,-.1,-.7,-.1c-.3,0,-.5,0,-.8,0h-2.2v.9Z" class="g0_1" />
<path d="M189.1,168.2c0,.3,0,.5,0,.7h-.9c0,-.2,0,-.4,0,-.7c0,-.2,0,-.5,0,-.7v-6.6c0,-.3,0,-.5,0,-.8c0,-.2,0,-.4,0,-.7h.9c0,.3,0,.5,0,.7c0,.3,0,.5,0,.8v6.6c0,.2,0,.5,0,.7m-4.4,-6.5c0,.5,.1,1,.2,1.4c.1,.4,.2,.8,.4,1.2c.2,.3,.5,.7,.8,1c.4,.4,.7,.7,1.2,.9c-.2,.1,-.3,.2,-.4,.3c-.1,.2,-.2,.3,-.3,.3c-.2,-.1,-.4,-.3,-.7,-.5c-.2,-.2,-.4,-.4,-.6,-.6c-.2,-.3,-.4,-.6,-.6,-.9c-.2,-.3,-.3,-.6,-.4,-.9c-.1,.3,-.2,.6,-.4,.9c-.1,.3,-.3,.6,-.5,.9c-.2,.3,-.5,.5,-.7,.8c-.3,.2,-.5,.4,-.7,.6c-.1,-.1,-.2,-.2,-.4,-.3c-.1,-.1,-.2,-.2,-.4,-.3c.4,-.3,.8,-.6,1.2,-1c.3,-.3,.6,-.7,.8,-1.1c.2,-.4,.4,-.9,.5,-1.3c.1,-.5,.1,-1,.1,-1.5v-.7c0,-.2,0,-.3,0,-.5c0,-.2,0,-.4,0,-.6h1c-.1,.2,-.1,.4,-.1,.6c0,.2,0,.3,0,.5Z" class="g0_1" />
<path d="M195.5,168.1c.4,.2,1,.3,1.7,.3c.7,0,1.2,-.1,1.7,-.3c.4,-.2,.6,-.4,.6,-.8c0,-.3,-.2,-.6,-.6,-.8c-.5,-.2,-1,-.3,-1.7,-.3c-.7,0,-1.3,.1,-1.7,.3c-.5,.2,-.7,.5,-.7,.8c0,.4,.2,.6,.7,.8m2.2,-7.7c.1,.3,.2,.6,.4,.8c.3,.2,.5,.4,.8,.5c.3,.2,.6,.3,1,.4c.4,.1,.7,.2,1,.2c0,.1,-.1,.1,-.1,.2c-.1,0,-.1,.1,-.1,.2c-.1,0,-.1,.1,-.2,.1c0,.1,0,.2,-.1,.2c-.2,0,-.5,-.1,-.8,-.2c-.3,-.1,-.6,-.2,-.9,-.3c-.3,-.2,-.6,-.3,-.9,-.5c-.2,-.2,-.5,-.5,-.6,-.8c-.2,.3,-.3,.5,-.6,.7c-.2,.2,-.4,.3,-.7,.4c-.3,.2,-.6,.3,-.9,.4c-.4,.1,-.7,.2,-1.1,.3c0,-.1,-.1,-.2,-.2,-.3c-.1,-.2,-.2,-.3,-.3,-.4c.4,-.1,.8,-.1,1.1,-.2c.4,-.2,.7,-.3,1.1,-.4c.2,-.2,.5,-.4,.7,-.6c.2,-.2,.3,-.4,.4,-.7H195c-.2,0,-.4,0,-.5,0c-.1,.1,-.3,.1,-.5,.1v-.8c.2,0,.4,0,.5,0c.1,0,.3,0,.5,0h4.4c.2,0,.3,0,.5,0c.1,0,.3,0,.4,0v.8c-.1,0,-.3,0,-.4,-.1c-.2,0,-.3,0,-.5,0Zm-.1,5.1c1,.1,1.7,.3,2.2,.6c.4,.3,.7,.7,.7,1.2c0,.5,-.3,1,-.9,1.3c-.5,.4,-1.4,.5,-2.4,.5c-1.1,0,-1.9,-.1,-2.5,-.5c-.6,-.3,-.8,-.8,-.8,-1.3c0,-.5,.2,-.9,.7,-1.2c.5,-.3,1.2,-.5,2.1,-.6v-1.1h-2.2c-.2,0,-.5,0,-.8,0c-.2,0,-.5,.1,-.7,.1v-.9c.2,.1,.5,.1,.7,.1c.3,0,.6,0,.8,0h5.3c.3,0,.6,0,.8,0c.3,0,.5,0,.8,-.1v.9c-.3,0,-.5,-.1,-.8,-.1c-.2,0,-.5,0,-.8,0h-2.2Z" class="g0_1" />
<path d="M208.3,162.2c.1,-.6,.2,-1.1,.2,-1.7h-4.4c-.2,0,-.4,0,-.6,0c-.2,0,-.4,0,-.6,.1v-.9c.2,0,.4,.1,.6,.1c.2,0,.4,0,.6,0h5.3c0,.3,-.1,.6,-.1,1c0,.3,0,.7,-.1,1.1c0,.4,-.1,.8,-.1,1.1c-.1,.4,-.1,.7,-.2,1c.2,0,.5,0,.7,0c.3,0,.5,0,.8,-.1v.9c-.3,0,-.5,0,-.8,-.1c-.2,0,-.5,0,-.8,0h-2.3v3.2c0,.2,0,.3,0,.5c0,.2,0,.4,.1,.5h-1c0,-.1,0,-.3,.1,-.5c0,-.2,0,-.3,0,-.5v-3.2h-2.2c-.3,0,-.5,0,-.8,0c-.2,.1,-.5,.1,-.8,.1v-.9c.3,.1,.6,.1,.8,.1c.3,0,.5,0,.8,0h4.6c.1,-.6,.2,-1.1,.2,-1.8Z" class="g0_1" />
<path d="M221.3,161.6c.1,0,.2,0,.4,0c.1,0,.2,0,.3,0v.8c-.1,0,-.2,0,-.3,0c-.2,0,-.3,0,-.4,0h-.5v2.5h-.9v-4.4c0,-.2,0,-.4,0,-.5c0,-.2,0,-.4,0,-.6h.9c0,.2,0,.4,0,.6c0,.1,0,.3,0,.5v1.1Zm-1.3,4.5h-4.1v2H220v-2Zm-4.9,2.7v-2.5c0,-.2,0,-.3,0,-.5c-.1,-.1,-.1,-.3,-.1,-.4h5.9c-.1,.1,-.1,.3,-.1,.4c0,.2,0,.3,0,.5v2.5Zm1.7,-7.2c.1,.3,.3,.6,.5,.9c.3,.3,.5,.5,.8,.7c.3,.2,.6,.3,.9,.4c0,.1,-.1,.2,-.1,.2q-.1,.1,-.2,.2c0,.1,-.1,.1,-.1,.2c-.1,0,-.1,.1,-.2,.1c-.1,-.1,-.3,-.2,-.5,-.3c-.2,-.1,-.4,-.3,-.6,-.4c-.2,-.2,-.4,-.4,-.6,-.6c-.2,-.2,-.4,-.5,-.5,-.7c-.1,.2,-.2,.5,-.4,.7c-.1,.2,-.3,.5,-.5,.7c-.2,.2,-.4,.3,-.7,.5c-.2,.2,-.4,.3,-.7,.4c0,-.1,-.1,-.2,-.3,-.3c-.1,-.1,-.3,-.2,-.4,-.3c.4,-.2,.8,-.4,1.1,-.6c.3,-.3,.6,-.5,.8,-.9c.2,-.2,.3,-.5,.5,-.9c.1,-.3,.1,-.6,.1,-1c0,-.2,0,-.4,0,-.5c0,-.1,0,-.3,0,-.4h1c-.1,.1,-.1,.3,-.1,.4c0,.2,0,.3,0,.5c0,.3,.1,.7,.2,1Z" class="g0_1" />
<path d="M230.2,164.3h-.9v-3.8c0,-.2,0,-.4,0,-.5c0,-.2,0,-.4,0,-.6h.9c0,.2,0,.4,0,.6c0,.1,0,.3,0,.5Zm-6,2.2h5.1v-1h-4.2c-.2,0,-.3,0,-.5,0c-.1,.1,-.3,.1,-.4,.1v-.8c.2,0,.3,0,.4,0c.2,0,.3,0,.5,0h5.1c0,.2,0,.3,0,.4c0,.2,0,.3,0,.4v1.6h-5.1v.9h4.8c.2,0,.3,0,.5,0v.8c-.2,0,-.3,0,-.5,0c-.1,0,-.3,-.1,-.4,-.1h-5.3Zm0,-3.6c.2,.2,.6,.4,1,.4c.5,0,.8,-.2,1.1,-.4c.3,-.3,.4,-.7,.4,-1.1c0,-.4,-.1,-.8,-.4,-1.1c-.3,-.3,-.6,-.4,-1.1,-.4c-.2,0,-.4,0,-.6,.1c-.2,.1,-.3,.2,-.4,.3c-.2,.2,-.3,.3,-.3,.5c-.1,.2,-.2,.4,-.2,.6c0,.4,.2,.8,.5,1.1m-1.1,-2c.1,-.3,.3,-.5,.5,-.7c.2,-.2,.4,-.4,.7,-.5c.3,-.1,.6,-.2,.9,-.2c.3,0,.6,.1,.9,.2c.3,.1,.5,.3,.7,.5c.3,.2,.4,.4,.6,.7c.1,.3,.1,.6,.1,.9c0,.3,0,.6,-.1,.9c-.2,.3,-.3,.5,-.6,.7c-.2,.2,-.4,.4,-.7,.5c-.3,.1,-.6,.2,-.9,.2c-.3,0,-.6,-.1,-.9,-.2c-.2,-.1,-.5,-.3,-.7,-.5c-.2,-.2,-.4,-.4,-.5,-.7c-.1,-.3,-.2,-.6,-.2,-.9c0,-.3,.1,-.6,.2,-.9Z" class="g0_1" />
<path d="M238.4,162.9v-2c0,-.3,0,-.5,0,-.8c0,-.2,0,-.4,0,-.7h.9c0,.3,0,.5,0,.7c0,.3,0,.5,0,.8v6.6c0,.2,0,.5,0,.7c0,.3,0,.5,0,.7h-.9c0,-.2,0,-.4,0,-.7c0,-.2,0,-.5,0,-.7v-3.8h-1.1v4.1c0,.2,0,.4,0,.7h-.9c0,-.3,0,-.5,0,-.7c0,-.3,0,-.5,0,-.7V161c0,-.2,0,-.5,0,-.7c0,-.2,0,-.5,0,-.7h.9c0,.2,0,.5,0,.7v2.6Zm-5.3,2.8h1.1c.1,0,.3,0,.5,0c.1,0,.3,0,.5,0c.2,-.1,.3,-.1,.5,-.1c.1,0,.3,-.1,.3,-.1v.8c-.1,0,-.2,.1,-.3,.1c-.2,0,-.4,0,-.6,0c-.2,.1,-.4,.1,-.6,.1c-.2,0,-.4,0,-.6,0c-.1,0,-.3,0,-.5,0c-.2,0,-.4,.1,-.5,.1h-.6v-5.4c0,-.2,0,-.4,0,-.6c0,-.1,-.1,-.3,-.1,-.5H235c.2,0,.3,0,.4,-.1v.9c0,0,-.1,-.1,-.2,-.1c0,0,-.1,0,-.2,0h-1.9Z" class="g0_1" />
<path d="M241.6,165.3v-3.1h5.2v-1.6h-4.3c-.2,0,-.3,0,-.5,0c-.1,0,-.3,0,-.4,.1v-.9c.2,0,.3,.1,.5,.1c.1,0,.2,0,.4,0h5.2c0,.1,0,.3,0,.4c0,.2,0,.4,0,.5v2.1h-5.3v1.6h5.1c.1,0,.3,0,.5,0v.8c-.2,0,-.4,0,-.5,0c-.1,0,-.3,0,-.5,0h-1.9V167h2.3c.2,0,.5,0,.7,0c.3,0,.5,0,.8,-.1v.9c-.3,0,-.5,0,-.8,0c-.2,0,-.5,0,-.7,0H242c-.2,0,-.5,0,-.8,0c-.2,0,-.5,0,-.7,0v-.9c.2,.1,.5,.1,.7,.1c.3,0,.6,0,.8,0h2.2v-1.7Z" class="g0_1" />
<path d="M254.2,166.3c-.2,0,-.3,0,-.5,0v1c0,.2,.1,.3,.1,.5c0,.1,0,.3,0,.5h-.9c0,-.2,0,-.4,0,-.5c0,-.2,0,-.3,0,-.4v-1c-.1,0,-.2,0,-.2,0h-3.1v-.7l2.3,-4.9q.1,-.1,.1,-.2c.1,-.1,.1,-.2,.1,-.3q.1,-.1,.1,-.2c.1,-.1,.1,-.2,.2,-.3h1c-.1,.1,-.2,.3,-.3,.5c-.1,.2,-.2,.3,-.2,.5l-1.7,3.5c-.1,.2,-.3,.5,-.4,.7c-.1,.3,-.2,.5,-.3,.6c0,0,.1,0,.2,0c.1,0,.2,0,.3,0c.1,0,.2,0,.3,0q.1,0,.1,0h1.5v-3.2l.8,-.1v3.3c.1,0,.2,0,.2,0c.1,0,.2,0,.3,0c.1,0,.2,0,.3,0c.1,0,.2,0,.2,-.1v.9c-.2,0,-.4,0,-.5,-.1Z" class="g0_1" />
<path d="M263.2,164.4h-.8v-3.9c0,-.2,0,-.4,-.1,-.5c0,-.2,0,-.4,0,-.6h.9c0,.2,0,.4,0,.6c0,.1,0,.3,0,.5Zm-6,2.1h5.1v-.9h-4.2c-.1,0,-.3,0,-.4,0c-.2,0,-.3,0,-.5,0v-.8c.2,0,.3,0,.5,0c.1,0,.3,.1,.4,.1h5.1c0,.1,0,.2,0,.4c0,.1,0,.2,0,.4v1.5h-5.1v.9H263c.1,0,.2,0,.4,0v.8c-.2,0,-.3,0,-.5,0c-.1,0,-.2,0,-.4,0h-5.3Zm-.4,-5.9c-.2,0,-.3,0,-.5,0v-.8c.2,0,.3,0,.5,.1c.1,0,.2,0,.4,0h3.3c-.1,.5,-.2,1.1,-.4,1.6c-.3,.4,-.5,.9,-.9,1.2c-.4,.4,-.8,.8,-1.3,1.1c-.5,.3,-1,.5,-1.6,.7c0,-.1,-.1,-.2,-.2,-.3c-.1,-.2,-.2,-.3,-.3,-.4c.4,-.1,.8,-.3,1.3,-.5c.4,-.2,.8,-.4,1.1,-.7c.3,-.3,.6,-.5,.8,-.9c.2,-.3,.4,-.7,.5,-1.1h-2.3c-.2,0,-.3,0,-.4,0Z" class="g0_1" />
<path d="M271.4,163.2c0,-.2,0,-.5,0,-.8c-.1,-.2,-.1,-.5,-.2,-.7c-.1,-.2,-.2,-.4,-.3,-.6c-.2,-.1,-.3,-.2,-.5,-.3c-.2,-.1,-.4,-.2,-.7,-.2c-.2,0,-.4,.1,-.6,.2c-.2,0,-.3,.2,-.5,.3c-.1,.2,-.2,.4,-.3,.7c-.1,.2,-.1,.5,-.1,.8c0,.3,0,.5,.1,.8c0,.2,.1,.4,.3,.5c.1,.2,.3,.3,.5,.4c.2,.1,.4,.2,.7,.2c.2,0,.5,-.1,.7,-.2c.3,-.1,.5,-.2,.8,-.5c0,-.2,0,-.4,.1,-.6m-3.8,5.3c.4,-.2,.7,-.3,1.1,-.6c.3,-.2,.7,-.5,1,-.8c.3,-.3,.5,-.7,.8,-1.1c.2,-.4,.5,-.8,.6,-1.3l.1,-.1c-.3,.2,-.5,.3,-.9,.4c-.3,.1,-.6,.2,-.8,.2c-.3,0,-.6,-.1,-.9,-.2c-.3,-.1,-.5,-.3,-.7,-.5c-.2,-.3,-.4,-.5,-.5,-.8c-.1,-.3,-.2,-.7,-.2,-1c0,-.4,.1,-.8,.2,-1.1c.2,-.3,.4,-.6,.6,-.8c.2,-.3,.5,-.5,.8,-.6c.3,-.1,.6,-.2,1,-.2c.3,0,.7,.1,1,.2c.3,.2,.5,.4,.8,.6c.2,.3,.4,.6,.5,1c.1,.4,.2,.8,.2,1.3c0,.6,-.2,1.3,-.4,1.9c-.2,.6,-.5,1.1,-.8,1.6c-.4,.6,-.9,1,-1.4,1.4c-.5,.4,-1.1,.7,-1.7,.9Z" class="g0_1" />
<path d="M274.5,169.2c-.3,.3,-.5,.5,-.8,.7l-.2,-.2c.1,-.1,.3,-.2,.4,-.4c.1,-.2,.2,-.3,.3,-.5c0,-.1,0,-.2,0,-.3c0,0,-.1,-.1,-.1,-.1q-.1,0,-.2,0q-.1,0,-.2,0c0,-.1,-.1,-.2,-.2,-.2c0,-.1,-.1,-.3,-.1,-.4c0,-.2,.1,-.4,.2,-.5c.1,-.1,.3,-.2,.5,-.2c.2,0,.3,.1,.5,.3c.1,.2,.2,.4,.2,.6c0,.4,-.1,.8,-.3,1.2Z" class="g0_1" />
<path d="M286.1,163c.2,0,.3,0,.4,0c.2,0,.3,-.1,.4,-.1v.9c-.1,0,-.2,0,-.4,0c-.1,0,-.2,0,-.4,0h-.5v3.7c0,.3,0,.5,0,.7c0,.3,0,.5,0,.8h-1c.1,-.3,.1,-.5,.1,-.8c0,-.2,0,-.4,0,-.7v-6.7c0,-.2,0,-.4,0,-.7c0,-.2,0,-.4,-.1,-.7h1c0,.3,0,.5,0,.7c0,.3,0,.5,0,.7V163Zm-6.3,-2.3c-.2,0,-.3,0,-.5,0c-.1,0,-.3,0,-.4,0v-.8c.1,0,.3,0,.4,0c.2,0,.3,0,.5,0H283c0,.2,0,.4,0,.5c-.1,.1,-.1,.3,-.1,.4v2.8h-3.2v2.3h1.5c.2,0,.5,0,.8,-.1c.3,0,.6,0,.9,-.1c.3,0,.6,0,.8,-.1c.3,0,.4,0,.6,-.1v.8c-.2,.1,-.3,.1,-.6,.1c-.2,0,-.5,.1,-.8,.1c-.2,0,-.5,.1,-.8,.1c-.4,0,-.7,0,-1,0c-.1,.1,-.4,.1,-.6,.1c-.3,0,-.5,0,-.8,0h-.8v-3.8h3.2v-2.2Z" class="g0_1" />
<path d="M295,168.2c0,.3,0,.5,0,.7h-.9c0,-.2,0,-.4,0,-.7c0,-.2,0,-.4,0,-.7v-6.6c0,-.3,0,-.5,0,-.8c0,-.2,0,-.4,0,-.7h.9c0,.3,0,.5,0,.7c0,.3,0,.5,0,.8v6.6c0,.3,0,.5,0,.7m-6.3,-3.8c.1,.3,.2,.6,.3,.9c.1,.3,.3,.5,.4,.6c.2,.2,.4,.2,.7,.2c.2,0,.4,0,.6,-.2c.1,-.1,.3,-.3,.4,-.6c.1,-.3,.2,-.6,.3,-.9c0,-.4,.1,-.7,.1,-1.1c0,-.4,-.1,-.7,-.1,-1c-.1,-.4,-.2,-.7,-.3,-.9c-.1,-.3,-.3,-.5,-.4,-.7c-.2,-.1,-.4,-.2,-.6,-.2c-.3,0,-.5,.1,-.7,.2c-.1,.2,-.3,.4,-.4,.7c-.1,.2,-.2,.5,-.3,.9c0,.3,-.1,.6,-.1,1c0,.4,.1,.7,.1,1.1m-.7,-2.7c.1,-.5,.3,-.8,.5,-1.1c.2,-.3,.5,-.6,.7,-.7c.3,-.1,.6,-.2,.9,-.2c.2,0,.5,.1,.8,.2c.3,.2,.5,.4,.7,.7c.2,.3,.4,.6,.5,1.1c.1,.5,.2,1,.2,1.6c0,.6,-.1,1.2,-.2,1.6c-.1,.5,-.3,.8,-.5,1.1c-.2,.3,-.4,.6,-.7,.7c-.3,.2,-.6,.2,-.8,.2c-.3,0,-.6,0,-.9,-.2c-.3,-.1,-.5,-.4,-.7,-.7c-.2,-.2,-.4,-.6,-.5,-1.1c-.1,-.4,-.2,-1,-.2,-1.6c0,-.6,.1,-1.2,.2,-1.6Z" class="g0_1" />
<path d="M302.2,162.2c.4,-.2,.6,-.5,.6,-.9c0,-.3,-.2,-.6,-.6,-.9c-.5,-.2,-1,-.3,-1.7,-.3c-.7,0,-1.3,.1,-1.7,.3c-.4,.2,-.6,.5,-.6,.9c0,.4,.2,.7,.6,.9c.4,.3,1,.4,1.7,.4c.7,0,1.2,-.1,1.7,-.4m-4.8,4.6c0,-.2,0,-.3,0,-.5c0,-.1,0,-.2,0,-.4h.9c0,.2,0,.3,-.1,.4c0,.2,0,.3,0,.4V168h4.2c.3,0,.5,0,.8,0c.2,0,.4,0,.7,-.1v.9c-.3,0,-.5,0,-.7,-.1c-.3,0,-.5,0,-.8,0h-5Zm2.7,-3.5c-1,-.1,-1.6,-.3,-2.1,-.7c-.5,-.3,-.7,-.8,-.7,-1.3c0,-.2,.1,-.5,.2,-.7c.1,-.3,.3,-.5,.6,-.7c.3,-.1,.6,-.3,1,-.4c.4,-.1,.9,-.1,1.4,-.1c1,0,1.8,.1,2.4,.5c.5,.4,.8,.9,.8,1.4c0,.5,-.2,1,-.7,1.3c-.5,.4,-1.1,.6,-2.1,.7v1.1h2.3c.2,0,.5,0,.7,0c.3,0,.5,0,.8,0v.8c-.3,0,-.5,0,-.8,0c-.2,0,-.5,0,-.7,0h-5.4c-.2,0,-.5,0,-.7,0c-.3,0,-.5,0,-.8,0v-.8c.3,0,.5,0,.8,0c.2,0,.5,0,.7,0h2.3Z" class="g0_1" />
<path d="M310.2,161.8c.2,.4,.5,.8,.8,1.1c.4,.4,.7,.7,1.1,.9c.4,.2,.8,.4,1.2,.5c-.1,.2,-.2,.3,-.3,.4c-.1,.1,-.2,.2,-.3,.3c-.3,-.1,-.6,-.2,-.9,-.4c-.3,-.2,-.6,-.4,-.9,-.7c-.3,-.2,-.6,-.5,-.9,-.8c-.2,-.3,-.4,-.6,-.5,-1c-.1,.3,-.3,.6,-.5,.9c-.2,.3,-.5,.5,-.7,.8c-.3,.3,-.6,.5,-1,.7c-.3,.2,-.7,.4,-1,.5c-.1,-.1,-.2,-.2,-.3,-.3c-.1,-.1,-.3,-.2,-.4,-.4c.4,-.1,.9,-.3,1.3,-.5c.4,-.3,.8,-.6,1.1,-.9c.3,-.3,.5,-.7,.7,-1.1c.2,-.4,.3,-.8,.3,-1.2c0,-.2,0,-.3,0,-.4c0,-.1,0,-.3,0,-.4h1c0,.1,0,.3,-.1,.4c0,.1,0,.2,0,.4c0,.4,.1,.8,.3,1.2m-3.4,5.8c-.2,0,-.5,0,-.8,0c-.2,.1,-.5,.1,-.7,.1v-.9c.2,0,.5,.1,.7,.1c.3,0,.6,0,.8,0h5.4c.2,0,.5,0,.7,0c.3,0,.5,-.1,.8,-.1v.9c-.3,0,-.5,0,-.8,-.1c-.2,0,-.5,0,-.7,0Z" class="g0_1" />
<path d="M321.9,164.3h-.8v-3.8c0,-.2,0,-.4,0,-.5c0,-.2,0,-.4,-.1,-.6h1c-.1,.2,-.1,.4,-.1,.6c0,.1,0,.3,0,.5Zm-5.9,2.2h5v-1h-4.2c-.1,0,-.3,0,-.4,0c-.2,0,-.3,0,-.4,0v-.8c.1,0,.3,.1,.4,.1c.1,0,.3,0,.4,0H322c-.1,.1,-.1,.2,-.1,.4c0,.1,0,.2,0,.4v1.5h-5.1v1h4.9c.1,0,.3,0,.4,0v.8c-.1,0,-.3,0,-.4,0c-.2,0,-.3,-.1,-.5,-.1H316Zm2.3,-4.7h-2.5v1.4h2.5v-1.4Zm.8,2.1H315v-3.3c0,-.1,0,-.3,0,-.4c0,-.2,0,-.3,-.1,-.5h.9c0,.2,0,.3,0,.5c0,.1,0,.3,0,.4v.5h2.5v-.5c0,-.1,0,-.3,0,-.4c0,-.2,0,-.3,0,-.5h.9c0,.2,0,.3,-.1,.5c0,.1,0,.3,0,.4Z" class="g0_1" />
<path d="M330.8,164.6c.1,.2,.1,.3,.1,.5h-1c.1,-.2,.1,-.3,.1,-.5c0,-.2,0,-.4,0,-.6v-3.5c0,-.2,0,-.4,0,-.5c0,-.2,0,-.4,-.1,-.6h1c0,.2,0,.4,-.1,.6c0,.1,0,.3,0,.5V164c0,.2,0,.4,0,.6m-4.7,3.5c.5,.2,1,.3,1.7,.3c.7,0,1.2,-.1,1.6,-.3c.5,-.2,.7,-.5,.7,-.9c0,-.4,-.2,-.7,-.7,-.9c-.4,-.3,-.9,-.4,-1.6,-.4c-.7,0,-1.2,.1,-1.7,.4c-.4,.2,-.6,.5,-.6,.9c0,.4,.2,.7,.6,.9m-.7,-2.3c.6,-.4,1.3,-.6,2.4,-.6c1,0,1.8,.2,2.4,.6c.5,.3,.8,.8,.8,1.4c0,.5,-.3,1,-.8,1.4c-.6,.3,-1.4,.5,-2.4,.5c-1.1,0,-1.8,-.2,-2.4,-.5c-.5,-.4,-.8,-.9,-.8,-1.4c0,-.6,.3,-1.1,.8,-1.4m-1.5,-5.4c0,-.2,0,-.4,0,-.5h3.9c.1,0,.3,-.1,.5,-.1v.8c-.2,0,-.4,0,-.5,0c-.2,0,-.3,0,-.5,0h-2.5v2.7l1.6,-.1c.2,0,.5,0,.8,0c.3,0,.6,0,.9,-.1c.3,0,.6,0,.9,-.1c.2,0,.4,0,.6,-.1v.8c-.2,0,-.4,0,-.6,.1c-.3,0,-.5,.1,-.8,.1c-.3,0,-.6,.1,-1,.1c-.3,0,-.6,0,-.9,0c-.2,0,-.4,0,-.7,0c-.2,0,-.5,0,-.7,0H324v-3.1c0,-.1,0,-.3,-.1,-.5Z" class="g0_1" />
<path d="M339.1,164.1c.1,.1,.3,.3,.5,.5c.1,.1,.2,.3,.2,.5c.1,.2,.2,.5,.2,.7c0,.5,-.2,.9,-.4,1.3c-.3,.4,-.6,.6,-1,.9c-.3,.2,-.8,.4,-1.2,.5c-.5,.1,-.9,.1,-1.4,.1c-.1,0,-.3,-.1,-.4,-.1c-.1,0,-.2,0,-.3,0l-.1,-.7c0,0,.1,0,.1,.1q.1,0,.1,0q.1,0,.2,0c0,0,.1,0,.2,0c.3,0,.7,0,1.1,-.1c.3,0,.7,-.1,1,-.3c.3,-.1,.6,-.3,.8,-.6c.2,-.3,.3,-.6,.3,-1.1c0,-.3,-.1,-.6,-.2,-.8c-.2,-.3,-.4,-.4,-.6,-.6c-.3,-.1,-.5,-.2,-.8,-.2c-.3,0,-.6,0,-1,0v-.8c.1,.1,.2,.1,.3,.1h.3c.3,0,.6,-.1,.8,-.1c.2,-.1,.4,-.2,.6,-.4c.1,-.1,.2,-.2,.3,-.4c.1,-.2,.1,-.4,.1,-.6c0,-.3,0,-.4,-.1,-.6c-.1,-.1,-.2,-.3,-.3,-.4c-.2,-.1,-.3,-.1,-.5,-.2c-.2,0,-.4,0,-.6,0c-.1,0,-.3,0,-.4,0c-.2,0,-.3,.1,-.5,.1c-.1,.1,-.3,.2,-.4,.2c-.2,.1,-.3,.2,-.4,.3l-.4,-.6c.1,-.1,.3,-.2,.5,-.3c.2,-.1,.4,-.2,.6,-.3c.2,0,.4,-.1,.6,-.1c.2,-.1,.4,-.1,.6,-.1c.3,0,.6,0,.8,.1c.3,.1,.5,.2,.7,.4c.2,.1,.4,.3,.5,.6c.2,.2,.2,.5,.2,.8c0,.2,0,.4,0,.6c-.1,.2,-.2,.3,-.3,.5c-.1,.1,-.2,.3,-.4,.4c-.2,.2,-.4,.3,-.6,.4c.2,0,.5,.1,.7,.3Z" class="g0_1" />
<path d="M343.3,167.4c.1,-.3,.1,-.5,.1,-.8v-5.3c-.2,.2,-.4,.3,-.7,.5c-.2,.1,-.5,.3,-.7,.4l-.4,-.6c.4,-.1,.7,-.3,1,-.6c.4,-.2,.7,-.5,.9,-.9h.7v6.5c0,.3,0,.5,0,.8c0,.2,0,.4,0,.7h-.9c0,-.3,0,-.5,0,-.7Z" class="g0_1" />
<path d="M350.6,161c-.2,0,-.3,0,-.5,0h-1.9c-.1,0,-.2,0,-.3,.1c0,0,-.1,0,-.2,0q-.1,0,-.2,0l.1,-.9c.2,0,.3,.1,.5,.1c.2,0,.3,0,.4,0H352l-.1,.9c-.4,.6,-.7,1.1,-1.1,1.7c-.3,.5,-.6,1.1,-.9,1.7c-.2,.6,-.5,1.2,-.7,1.8c-.2,.7,-.4,1.3,-.5,2h-1c.1,-.4,.2,-.8,.4,-1.2c.1,-.5,.3,-1,.5,-1.5c.2,-.6,.5,-1.1,.7,-1.6c.3,-.5,.5,-.9,.7,-1.3c.1,-.2,.2,-.3,.3,-.5c.1,-.1,.2,-.3,.3,-.4c.1,-.2,.2,-.4,.3,-.5c.1,-.1,.2,-.3,.3,-.4c-.2,0,-.4,0,-.6,0Z" class="g0_1" />
<path d="M356,160.4h-.4c0,0,-.1,0,-.2,0c0,0,-.1,0,-.2,0v-.8c.2,.1,.3,.1,.4,.1h2.9c.1,0,.2,0,.4,-.1v.8c-.2,0,-.3,0,-.4,0c-.1,0,-.3,0,-.4,0Zm-.7,4.2c.1,.1,.2,.2,.4,.3c.2,.1,.4,.1,.6,.2c.3,0,.5,0,.8,0c.2,0,.5,0,.7,0c.2,-.1,.4,-.1,.6,-.2c.2,-.1,.3,-.2,.4,-.3c.1,-.1,.2,-.3,.2,-.4c0,-.2,-.1,-.3,-.2,-.4c-.1,-.1,-.2,-.2,-.4,-.3c-.2,-.1,-.4,-.1,-.6,-.2c-.2,0,-.5,0,-.7,0c-.3,0,-.5,0,-.8,0c-.2,.1,-.4,.1,-.6,.2c-.2,.1,-.3,.2,-.4,.3c-.1,.1,-.2,.2,-.2,.4c0,.1,.1,.3,.2,.4m-.7,-2.6c-.2,0,-.4,0,-.5,0c-.2,0,-.3,0,-.5,.1v-.9c.2,0,.3,.1,.5,.1c.1,0,.3,0,.5,0h5c.1,0,.3,0,.4,0c.2,0,.3,-.1,.5,-.1v.9c-.2,-.1,-.3,-.1,-.5,-.1c-.1,0,-.3,0,-.4,0Zm2,3.8c-.7,-.1,-1.3,-.2,-1.8,-.5c-.4,-.3,-.6,-.7,-.6,-1.1c0,-.2,0,-.5,.2,-.7c.1,-.2,.3,-.3,.6,-.5c.2,-.1,.5,-.2,.9,-.3c.3,-.1,.7,-.1,1.2,-.1c.4,0,.8,0,1.1,.1c.4,.1,.7,.2,.9,.3c.3,.2,.5,.3,.6,.5c.2,.2,.3,.5,.3,.7c0,.4,-.3,.8,-.7,1.1c-.4,.3,-1,.4,-1.8,.5V167h2.2c.3,0,.6,0,.8,0c.3,0,.5,0,.8,0v.8c-.3,0,-.5,0,-.8,0c-.2,0,-.5,0,-.8,0h-5.3c-.3,0,-.5,0,-.8,0c-.2,0,-.5,0,-.7,0V167c.2,0,.5,0,.7,0c.3,0,.5,0,.8,0h2.2Z" class="g0_1" />
<path d="M209.4,97c0,-.1,0,-.3,0,-.4c.1,-.1,.1,-.2,.1,-.3c0,-.2,0,-.3,0,-.4c-.4,0,-.9,.1,-1.4,.1c-.6,0,-1.2,0,-1.7,0c-.5,0,-1,0,-1.4,0h-.6v-.7c0,0,.2,0,.6,0c.4,0,.9,0,1.4,0c.6,0,1.1,0,1.7,0c.6,-.1,1.1,-.1,1.5,-.1c0,-.1,0,-.2,.1,-.3c0,-.1,0,-.2,0,-.3c0,0,0,-.1,0,-.2c0,-.1,0,-.2,0,-.3h-4.1c-.2,0,-.4,0,-.6,0c-.1,0,-.3,0,-.5,.1v-.8c.2,0,.4,0,.5,0c.2,0,.4,0,.6,0h5c-.1,.6,-.1,1.3,-.2,2c-.1,.6,-.2,1.3,-.3,1.9c.2,0,.5,0,.7,0c.2,0,.4,0,.7,-.1v.9c-.3,0,-.5,-.1,-.8,-.1c-.2,0,-.5,0,-.7,0h-2.2v1.4h2.6c0,.1,0,.3,0,.4c0,.1,0,.3,0,.4v1.5c0,.2,0,.3,0,.5c0,.2,0,.3,0,.5h-.9c.1,-.1,.1,-.3,.1,-.5c0,-.2,0,-.3,0,-.5v-1.5h-4.2c-.1,0,-.3,0,-.5,0c-.1,0,-.3,0,-.5,0v-.8c.2,0,.4,0,.5,0h2V98h-2c-.2,0,-.5,0,-.7,0c-.3,0,-.5,.1,-.8,.1v-.9c.3,.1,.5,.1,.8,.1c.2,0,.5,0,.7,0h4.4c0,-.1,0,-.2,.1,-.3Z" class="g0_1" />
<path d="M216.6,97.1c-.1,0,-.3,0,-.4,0c-.1,0,-.2,0,-.3,0v-.9c.1,.1,.2,.1,.3,.1c.1,0,.3,0,.4,0h1.7V94.6c0,-.3,0,-.5,0,-.8c0,-.2,0,-.4,-.1,-.7h.9c0,.3,0,.5,0,.7c0,.3,0,.5,0,.8v6.6c0,.2,0,.5,0,.7c0,.3,0,.5,0,.7h-.9c.1,-.2,.1,-.4,.1,-.7c0,-.2,0,-.5,0,-.7V97.1Zm-4,-2.8c0,-.2,0,-.4,0,-.6h3.6c.1,0,.3,0,.4,0v.8q-.1,0,-.2,0c-.1,0,-.2,0,-.2,0h-2.7v4.9h.9c.3,0,.6,0,.9,0c.4,0,.7,-.1,1,-.1c.3,0,.6,-.1,.8,-.1c.2,-.1,.4,-.1,.5,-.1v.8c-.2,0,-.4,0,-.7,.1c-.2,0,-.5,.1,-.8,.1c-.3,0,-.6,.1,-.9,.1c-.4,0,-.7,0,-.9,0l-1.7,.1V94.8c0,-.1,0,-.3,0,-.5Z" class="g0_1" />
<path d="M227.5,101.9c0,.3,0,.5,0,.7h-.8c0,-.2,0,-.4,0,-.7c0,-.2,0,-.4,0,-.7V94.6c0,-.3,0,-.5,0,-.8c0,-.2,0,-.4,0,-.7h.8c0,.3,0,.5,0,.7c0,.3,0,.5,0,.8v6.6c0,.3,0,.5,0,.7m-6.4,-7.6c-.1,-.2,-.1,-.4,-.1,-.6h3.7c.1,0,.3,0,.5,0v.8c-.1,0,-.2,0,-.3,0q-.1,0,-.2,0h-2.8v5l1.1,-.1c.3,0,.7,0,1,0c.4,0,.7,-.1,1,-.1c.3,0,.6,-.1,.8,-.1c.2,-.1,.4,-.1,.5,-.1v.8c-.2,0,-.4,0,-.6,.1c-.3,0,-.6,.1,-.9,.1c-.3,0,-.6,.1,-1,.1c-.3,0,-.6,0,-.9,0l-1.8,.1V94.8c0,-.1,0,-.3,0,-.5Z" class="g0_1" />
<path d="M236.2,96.8c.1,0,.3,0,.4,0c.1,0,.2,0,.4,0v.9c-.2,-.1,-.3,-.1,-.4,-.1c-.1,0,-.3,0,-.4,0h-.5v3.6c0,.3,0,.5,0,.7c0,.3,0,.5,0,.7h-.9c0,-.2,0,-.4,.1,-.7c0,-.2,0,-.4,0,-.7V94.6c0,-.3,0,-.5,0,-.8c-.1,-.2,-.1,-.4,-.1,-.7h.9c0,.3,0,.5,0,.7c0,.3,0,.5,0,.8v2.2Zm-6.3,-2.3c-.1,0,-.2,0,-.3,0c-.2,0,-.3,0,-.4,0v-.8c.1,0,.2,0,.4,0c.1,0,.2,0,.3,0H233c.2,0,.3,0,.4,0c.1,0,.3,0,.4,0v.8c-.1,0,-.3,0,-.4,0c-.1,0,-.2,0,-.4,0h-1.1v.9c0,.5,0,.9,.1,1.4c.1,.4,.3,.8,.4,1.1c.2,.4,.5,.8,.8,1.1c.3,.3,.7,.6,1.1,.9c-.1,.1,-.2,.2,-.3,.3c-.1,.1,-.2,.2,-.3,.3c-.2,-.1,-.5,-.3,-.7,-.5c-.2,-.2,-.4,-.4,-.6,-.6c-.2,-.3,-.4,-.6,-.5,-.9c-.2,-.3,-.3,-.6,-.4,-.9c-.1,.3,-.2,.6,-.4,.9c-.1,.3,-.3,.6,-.5,.9c-.2,.2,-.4,.5,-.7,.8c-.2,.2,-.4,.4,-.6,.6c-.1,-.1,-.2,-.2,-.4,-.3c-.1,-.1,-.2,-.2,-.4,-.3c.4,-.3,.8,-.6,1.1,-.9c.3,-.4,.6,-.8,.8,-1.2c.2,-.4,.4,-.8,.5,-1.3c.1,-.5,.1,-1,.1,-1.6v-.7Z" class="g0_1" />
<path d="M244.5,99.6c0,.2,0,.3,0,.5h-.9c0,-.2,0,-.3,0,-.5c0,-.2,0,-.4,0,-.6V94.2c0,-.2,0,-.4,0,-.5c0,-.2,0,-.4,0,-.6h.9c0,.2,0,.4,0,.6c-.1,.1,-.1,.3,-.1,.5V99c0,.2,0,.4,.1,.6m-5.7,.5c0,-.1,0,-.3,0,-.4c0,-.1,-.1,-.3,-.1,-.4h.9c0,.1,0,.3,0,.4c0,.1,0,.3,0,.4v1.6h3.6c.3,0,.5,0,.8,0c.2,0,.4,0,.7,-.1v.9c-.3,0,-.5,0,-.7,-.1c-.3,0,-.5,0,-.8,0h-4.4ZM238.7,97c.2,.3,.6,.5,1.1,.5c.4,0,.8,-.2,1,-.5c.3,-.4,.4,-.8,.4,-1.2c0,-.5,-.1,-.9,-.4,-1.3c-.2,-.3,-.6,-.5,-1,-.5c-.5,0,-.9,.2,-1.1,.5c-.3,.4,-.4,.8,-.4,1.3c0,.4,.1,.8,.4,1.2m-1.1,-2.2c.2,-.3,.3,-.6,.5,-.8c.2,-.2,.5,-.4,.7,-.6c.3,-.1,.6,-.2,1,-.2c.3,0,.6,.1,.9,.2c.2,.2,.5,.4,.7,.6c.2,.2,.3,.5,.5,.8c.1,.3,.1,.6,.1,1c0,.3,0,.6,-.1,.9c-.2,.3,-.3,.6,-.5,.8c-.2,.2,-.5,.4,-.7,.6c-.3,.1,-.6,.2,-.9,.2c-.4,0,-.7,-.1,-1,-.2c-.2,-.2,-.5,-.4,-.7,-.6c-.2,-.2,-.3,-.5,-.5,-.8c-.1,-.3,-.1,-.6,-.1,-.9c0,-.4,0,-.7,.1,-1Z" class="g0_1" />
<path d="M249.1,92.7h.7v10.1h-.7V92.7Z" class="g0_1" />
<path d="M260.9,98.7h-.8V94.2c0,-.2,0,-.4,0,-.5c0,-.2,0,-.4,0,-.6h.9c-.1,.2,-.1,.4,-.1,.6c0,.1,0,.3,0,.5Zm-.8,1.2H256v1.9h4.1V99.9Zm-4.9,2.6V100c0,-.1,0,-.2,0,-.4c0,-.2,0,-.3,0,-.5H261c-.1,.2,-.1,.4,-.1,.5c0,.1,0,.3,0,.4v2.5ZM254.3,94c0,-.1,0,-.3,0,-.5H258c.1,0,.3,0,.5,0v.8c-.2,-.1,-.4,-.1,-.5,-.1c-.2,0,-.3,0,-.5,0h-2.4v1.2h3.3v.7h-3.3v1.3h1.5c.3,0,.5,0,.8,-.1c.3,0,.5,0,.8,0c.3,-.1,.6,-.1,.8,-.1c.3,-.1,.5,-.1,.7,-.1v.7c-.1,0,-.3,0,-.5,.1c-.2,0,-.5,0,-.7,.1c-.2,0,-.5,0,-.7,0c-.3,0,-.5,.1,-.7,.1c-.2,0,-.5,0,-.9,0c-.3,0,-.6,0,-.8,0c-.3,0,-.6,0,-.8,0c-.2,0,-.3,0,-.3,0V94.6c0,-.2,0,-.4,0,-.6Z" class="g0_1" />
<path d="M269.7,95.3c.1,0,.2,0,.4,0c.1,0,.2,-.1,.3,-.1v.9c-.1,0,-.2,0,-.3,0c-.2,0,-.3,-.1,-.4,-.1h-.5v1.8c0,.2,0,.4,0,.6c0,.2,0,.3,.1,.5h-.9c0,-.2,0,-.3,0,-.5c0,-.2,0,-.4,0,-.6V94.2c0,-.2,0,-.4,0,-.5c0,-.2,0,-.4,0,-.6h.9c-.1,.2,-.1,.4,-.1,.6c0,.1,0,.3,0,.5v1.1Zm-4.8,6.5c.4,.2,.9,.3,1.6,.3c.6,0,1.1,-.1,1.5,-.3c.4,-.3,.6,-.5,.6,-.9c0,-.3,-.2,-.6,-.6,-.8c-.4,-.2,-.9,-.3,-1.5,-.3c-.7,0,-1.2,.1,-1.6,.3c-.3,.2,-.5,.5,-.5,.8c0,.4,.2,.7,.5,.9m-1.2,-1.6c.1,-.2,.3,-.4,.6,-.6c.2,-.1,.5,-.3,.9,-.4c.4,-.1,.8,-.1,1.3,-.1c.9,0,1.7,.1,2.2,.5c.5,.4,.7,.8,.7,1.3c0,.5,-.2,1,-.7,1.4c-.5,.3,-1.3,.5,-2.2,.5c-1,0,-1.7,-.2,-2.2,-.5c-.5,-.4,-.8,-.8,-.8,-1.4c0,-.2,.1,-.4,.2,-.7m-.2,-5.9c-.2,0,-.3,0,-.4,0c-.1,0,-.2,0,-.4,.1v-.9c.2,0,.3,0,.4,.1c.1,0,.2,0,.4,0h2.8c.1,0,.3,0,.4,0c.1,-.1,.2,-.1,.3,-.1v.9c-.1,-.1,-.2,-.1,-.3,-.1c-.1,0,-.3,0,-.4,0h-1v.3c0,.4,.1,.8,.2,1.1c.1,.3,.3,.6,.5,.8c.3,.3,.5,.5,.8,.6c.2,.2,.5,.4,.8,.5c-.1,.1,-.2,.2,-.3,.3c-.1,.1,-.2,.2,-.3,.3c-.1,-.1,-.3,-.2,-.5,-.3c-.3,-.1,-.5,-.3,-.6,-.5c-.2,-.1,-.4,-.3,-.6,-.5c-.2,-.2,-.3,-.4,-.4,-.7c-.1,.2,-.2,.5,-.3,.7c-.2,.2,-.3,.4,-.5,.6c-.2,.2,-.4,.4,-.6,.5c-.3,.2,-.5,.4,-.8,.5c0,-.1,-.1,-.2,-.3,-.3c-.1,-.1,-.2,-.2,-.3,-.3c.4,-.2,.7,-.4,1.1,-.6c.3,-.3,.6,-.6,.8,-.9c.1,-.3,.3,-.6,.3,-.8c.1,-.3,.2,-.7,.2,-1v-.3Z" class="g0_1" />
<path d="M86.2,114.6c0,.1,0,.3,0,.5h-.4c0,-.2,0,-.4,0,-.5c0,-.2,0,-.4,0,-.6v-4.7c0,-.2,0,-.3,0,-.5c0,-.2,0,-.3,0,-.5h.4c0,.2,0,.3,0,.5c0,.2,0,.3,0,.5V114c0,.2,0,.4,0,.6m-3.8,-1.7h.8c.2,0,.5,-.1,.7,-.1c.3,0,.5,0,.7,-.1c.2,0,.4,0,.6,-.1c.1,0,.3,0,.3,0v.4c-.1,0,-.3,.1,-.5,.1c-.2,0,-.4,.1,-.6,.1c-.2,0,-.4,.1,-.6,.1c-.2,0,-.4,0,-.5,0H81.9v-3.8c0,-.1,0,-.2,0,-.4c0,-.1,0,-.2,0,-.4h2.5c.1,0,.2,0,.3,0v.5q-.1,0,-.2,0c0,0,-.1,0,-.1,0h-2Z" class="g0_1" />
<path d="M92.9,111c.1,0,.2,0,.3,0c.1,0,.1,-.1,.2,-.1v.5q-.1,0,-.2,0c-.1,0,-.2,0,-.3,0h-.4v2.7c0,.1,0,.3,0,.5c0,.1,0,.3,0,.5H92c.1,-.2,.1,-.4,.1,-.5c0,-.2,0,-.4,0,-.5v-4.8c0,-.2,0,-.3,0,-.5c0,-.2,0,-.3,-.1,-.5h.5c0,.2,0,.3,0,.5c0,.2,0,.3,0,.5V111ZM90,109.8c0,.4,0,.7,.1,1c0,.4,.1,.6,.3,.9c.1,.3,.3,.5,.5,.8c.2,.2,.5,.4,.8,.6c-.1,.1,-.2,.1,-.2,.2c-.1,.1,-.1,.2,-.2,.2c-.1,-.1,-.3,-.3,-.5,-.4c-.1,-.2,-.2,-.3,-.4,-.5c-.1,-.2,-.3,-.4,-.4,-.7c-.1,-.2,-.2,-.4,-.3,-.7c0,.2,-.1,.5,-.2,.7c-.1,.2,-.2,.5,-.4,.7c-.1,.2,-.3,.4,-.4,.6c-.2,.2,-.4,.4,-.5,.5c-.1,0,-.1,-.1,-.2,-.2c-.1,0,-.2,-.1,-.2,-.1c.2,-.2,.5,-.5,.7,-.7c.2,-.3,.4,-.6,.6,-.9c.1,-.3,.2,-.6,.3,-1c.1,-.3,.1,-.7,.1,-1.1v-.6h-.8c-.1,0,-.2,0,-.2,0c-.1,0,-.2,.1,-.3,.1v-.5c.1,0,.2,0,.3,0c0,0,.1,0,.2,0h2.1c.1,0,.2,0,.2,0c.1,0,.2,0,.3,0v.5c-.1,0,-.2,-.1,-.3,-.1c0,0,-.1,0,-.2,0H90Z" class="g0_1" />
<path d="M99.3,112.9c0,.2,0,.3,0,.4h-.5c0,-.1,0,-.2,0,-.4c.1,-.1,.1,-.2,.1,-.3v-3.5c0,-.2,0,-.3,-.1,-.4c0,-.1,0,-.3,0,-.4h.5c0,.1,0,.3,0,.4c0,.1,0,.2,0,.4v3.5c0,.1,0,.2,0,.3m-3.8,.4c0,-.1,0,-.2,0,-.3c0,-.1,0,-.2,0,-.3H96c0,.1,-.1,.2,-.1,.3c0,.1,0,.2,0,.3v1.2h2.8c.1,0,.2,0,.4,0c.1,0,.2,0,.4,0v.5c-.2,-.1,-.3,-.1,-.4,-.1c-.2,0,-.3,0,-.4,0H95.5Zm1.4,-2.2c.2,-.2,.3,-.6,.3,-.9c0,-.4,-.1,-.7,-.3,-1c-.1,-.3,-.4,-.4,-.8,-.4c-.3,0,-.6,.1,-.8,.4c-.1,.3,-.2,.6,-.2,1c0,.3,.1,.7,.2,.9c.2,.3,.5,.4,.8,.4c.4,0,.7,-.1,.8,-.4m-1.4,.7c-.2,-.1,-.3,-.2,-.4,-.4c-.2,-.1,-.3,-.3,-.4,-.5c0,-.3,-.1,-.5,-.1,-.7c0,-.3,.1,-.5,.1,-.7c.1,-.2,.2,-.4,.4,-.6c.1,-.1,.2,-.3,.4,-.4c.2,-.1,.4,-.1,.6,-.1c.3,0,.5,0,.6,.1c.2,.1,.4,.3,.5,.4c.2,.2,.3,.4,.3,.6c.1,.2,.2,.4,.2,.7c0,.2,-.1,.4,-.2,.7c0,.2,-.1,.4,-.3,.5c-.1,.2,-.3,.3,-.5,.4c-.1,.1,-.3,.1,-.6,.1c-.2,0,-.4,0,-.6,-.1Z" class="g0_1" />
<path d="M102.4,110.1c.3,.1,.7,.2,1.2,.2c.4,0,.8,-.1,1.1,-.2c.3,-.2,.5,-.4,.5,-.6c0,-.3,-.2,-.5,-.5,-.7c-.3,-.1,-.7,-.2,-1.1,-.2c-.5,0,-.9,.1,-1.2,.2c-.3,.2,-.4,.4,-.4,.7c0,.2,.1,.4,.4,.6m-.8,3.3h3.5v-.8h-2.9c-.1,0,-.2,0,-.3,0c-.1,0,-.2,.1,-.3,.1v-.5c.1,0,.2,0,.3,0c.1,0,.2,0,.3,0h3.4c-.1,.1,-.1,.2,-.1,.3c0,.1,0,.2,0,.3v1H102v.8h3.4c.1,0,.2,0,.3,0v.4q-.2,0,-.3,0c-.1,0,-.2,0,-.3,0h-3.5Zm.5,-4.8c.3,-.2,.8,-.4,1.5,-.4c.3,0,.6,.1,.8,.1c.3,.1,.5,.2,.7,.3c.1,.1,.3,.3,.4,.4c.1,.1,.1,.3,.1,.5c0,.3,-.2,.6,-.5,.8c-.4,.2,-.9,.3,-1.5,.3c-.7,0,-1.2,-.1,-1.5,-.3c-.4,-.2,-.6,-.5,-.6,-.8c0,-.4,.2,-.7,.6,-.9m-.2,3c-.2,0,-.4,0,-.5,0c-.2,0,-.4,0,-.5,0v-.4c.1,0,.3,0,.5,0c.1,0,.3,0,.5,0h3.4c.1,0,.3,0,.5,0c.1,0,.3,0,.5,0v.4c-.2,0,-.4,0,-.5,0c-.2,0,-.4,0,-.5,0Z" class="g0_1" />
<path d="M111,110.8c0,.2,.1,.4,.3,.5c.1,.1,.3,.2,.5,.3c.2,0,.4,.1,.6,.1c.3,0,.5,-.1,.7,-.1c.2,-.1,.3,-.2,.5,-.3c.1,-.1,.2,-.3,.3,-.5c.1,-.1,.1,-.3,.1,-.5c0,-.3,0,-.5,-.1,-.6c-.1,-.2,-.2,-.4,-.3,-.5c-.2,-.1,-.3,-.2,-.5,-.3c-.2,0,-.4,-.1,-.7,-.1c-.2,0,-.4,.1,-.6,.1c-.2,.1,-.4,.2,-.5,.3c-.2,.1,-.3,.3,-.4,.5c0,.1,-.1,.3,-.1,.6c0,.2,.1,.4,.2,.5m-.5,-1.3c.1,-.2,.3,-.4,.5,-.5c.1,-.2,.4,-.3,.6,-.4c.3,-.1,.5,-.2,.8,-.2c.3,0,.6,.1,.9,.2c.2,.1,.4,.2,.6,.4c.2,.1,.3,.3,.4,.5c.1,.3,.2,.5,.2,.8c0,.2,-.1,.5,-.2,.7c-.1,.2,-.2,.4,-.4,.6c-.2,.1,-.4,.2,-.6,.3c-.3,.1,-.6,.2,-.9,.2c-.3,0,-.5,-.1,-.8,-.2c-.2,-.1,-.5,-.2,-.6,-.3c-.2,-.2,-.4,-.4,-.5,-.6c-.1,-.2,-.1,-.5,-.1,-.7c0,-.3,0,-.5,.1,-.8m.6,3.4v-.3q0,-.1,0,-.2c0,0,0,-.1,-.1,-.1h.5c0,.1,0,.2,0,.3v1.1h1.9v-1.1q0,-.1,0,-.2c0,0,0,-.1,0,-.1h.4c0,.1,0,.2,0,.3v1.1h.3c.2,0,.4,0,.5,0c.2,0,.4,0,.5,0v.5c-.1,0,-.3,-.1,-.5,-.1c-.1,0,-.3,0,-.5,0h-3.4c-.1,0,-.3,0,-.5,0c-.1,0,-.3,.1,-.5,.1v-.5c.2,0,.4,0,.5,0c.2,0,.4,0,.5,0h.4Z" class="g0_1" />
<path d="M121.1,114.6c0,.1,0,.3,0,.5h-.5c.1,-.2,.1,-.4,.1,-.5c0,-.2,0,-.4,0,-.6v-4.7c0,-.2,0,-.3,0,-.5c0,-.2,0,-.3,-.1,-.5h.5c0,.2,0,.3,0,.5c0,.2,0,.3,0,.5V114c0,.2,0,.4,0,.6m-1.7,-3.4h-2.2V113h1c.2,0,.4,0,.6,-.1c.3,0,.5,0,.7,0c.2,-.1,.4,-.1,.5,-.1c.2,0,.3,-.1,.4,-.1v.4c-.1,.1,-.2,.1,-.4,.1c-.1,0,-.3,.1,-.5,.1c-.2,0,-.4,0,-.6,.1c-.2,0,-.4,0,-.6,0c-.1,0,-.3,0,-.5,0c-.2,0,-.4,0,-.5,0h-.5v-2.6H119v-1.7h-1.6c-.1,0,-.2,0,-.3,0c-.1,0,-.2,0,-.3,0v-.5c.1,.1,.2,.1,.3,.1c.1,0,.2,0,.3,0h2c0,.1,0,.2,0,.3c0,.1,0,.2,0,.3Z" class="g0_1" />
<path d="M127.8,111.1c.1,0,.2,0,.3,0c.1,0,.2,0,.2,0v.5c0,0,-.1,0,-.2,0c-.1,0,-.2,0,-.3,0h-.4v2.5c0,.1,0,.3,0,.5c0,.1,0,.3,0,.5H127c0,-.2,0,-.4,0,-.5c0,-.2,0,-.4,0,-.5v-4.8c0,-.2,0,-.3,0,-.5c0,-.2,0,-.3,0,-.5h.4c0,.2,0,.3,0,.5c0,.2,0,.3,0,.5v1.8Zm-3.6,-2.2H124q-.1,0,-.1,0q-.1,0,-.2,0v-.5c.1,.1,.2,.1,.3,.1h1.2c.1,0,.2,0,.3,-.1v.5c-.1,0,-.2,0,-.3,0c0,0,-.1,0,-.2,0Zm-.3,4.2c.2,.2,.4,.3,.7,.3c.3,0,.6,-.1,.7,-.3c.2,-.3,.3,-.6,.3,-.9c0,-.3,-.1,-.6,-.3,-.9c-.1,-.2,-.4,-.3,-.7,-.3c-.3,0,-.5,.1,-.7,.3c-.2,.3,-.3,.6,-.3,.9c0,.3,.1,.6,.3,.9m-.6,-1.5c.1,-.2,.2,-.4,.3,-.5c.1,-.2,.3,-.3,.4,-.4c.2,-.1,.4,-.1,.6,-.1c.2,0,.4,0,.6,.1c.1,.1,.3,.2,.4,.4c.2,.1,.3,.3,.3,.5c.1,.2,.1,.4,.1,.6c0,.2,0,.4,-.1,.6c0,.2,-.1,.4,-.3,.5c-.1,.2,-.3,.3,-.4,.4c-.2,.1,-.4,.1,-.6,.1c-.2,0,-.4,0,-.6,-.1c-.1,-.1,-.3,-.2,-.4,-.4c-.1,-.1,-.2,-.3,-.3,-.5c-.1,-.2,-.1,-.4,-.1,-.6c0,-.2,0,-.4,.1,-.6m.1,-1.6q-.1,0,-.2,0c-.1,0,-.2,0,-.3,0v-.5c.1,0,.2,.1,.3,.1q.1,0,.2,0h2.4q.1,0,.2,0c.1,0,.2,-.1,.3,-.1v.5c-.1,0,-.2,0,-.3,0q-.1,0,-.2,0Z" class="g0_1" />
<path d="M134.2,110.7c.1,0,.2,0,.3,0q.1,0,.2,0v.5q-.1,-.1,-.2,-.1c-.1,0,-.2,0,-.3,0h-.4v3c0,.1,0,.3,0,.5c0,.1,0,.3,0,.5h-.5c.1,-.2,.1,-.4,.1,-.5c0,-.2,0,-.4,0,-.5v-4.8c0,-.2,0,-.3,0,-.5c0,-.2,0,-.3,-.1,-.5h.5c0,.2,0,.3,0,.5c0,.2,0,.3,0,.5v1.4Zm-4.6,-1.6c0,-.1,0,-.2,0,-.4H132c.1,0,.2,0,.3,0v.5c0,0,-.1,0,-.1,-.1q-.1,0,-.2,0h-1.9v3.8h.7c.2,0,.5,-.1,.7,-.1c.3,0,.5,0,.7,-.1c.2,0,.4,0,.6,-.1c.1,0,.2,0,.3,0v.4c-.1,0,-.3,.1,-.5,.1c-.2,0,-.4,.1,-.6,.1c-.2,0,-.4,.1,-.6,.1c-.2,0,-.3,0,-.5,0h-1.3v-3.8c0,-.1,0,-.2,0,-.4Z" class="g0_1" />
<path d="M169.5,175.7h-2.4v7.4h-1.2v-7.4h-2.4v-1h6Z" class="g1_1" />
<path d="M170.8,182.2h1.4v1.4h-1.4v-1.4Z" class="g0_1" />
<path d="M180.4,180.8V177c0,-.5,-.1,-.9,-.4,-1.2c-.3,-.3,-.7,-.5,-1.2,-.5c-.5,0,-.9,.2,-1.1,.5c-.3,.3,-.5,.7,-.5,1.2v3.8c0,.5,.2,.9,.5,1.2c.2,.3,.6,.5,1.1,.5c.5,0,.9,-.2,1.2,-.5c.3,-.3,.4,-.7,.4,-1.2m.9,0c0,.4,-.1,.7,-.2,1c-.2,.3,-.3,.5,-.6,.7c-.2,.2,-.4,.4,-.7,.5c-.3,.1,-.6,.2,-1,.2c-.3,0,-.6,-.1,-.9,-.2c-.3,-.1,-.6,-.3,-.8,-.5c-.2,-.2,-.4,-.4,-.5,-.7c-.2,-.3,-.2,-.6,-.2,-1v-3.9c0,-.3,0,-.6,.2,-.9c.1,-.3,.3,-.5,.5,-.7c.2,-.2,.5,-.4,.8,-.5c.3,-.1,.6,-.2,.9,-.2c.4,0,.7,.1,1,.2c.3,.1,.5,.3,.7,.5c.3,.2,.4,.4,.6,.7c.1,.3,.2,.6,.2,.9Z" class="g0_1" />
<path d="M187.5,183h-4.9c0,-.1,0,-.3,.1,-.5c.1,-.2,.2,-.4,.3,-.6c.1,-.3,.2,-.5,.4,-.7c.1,-.2,.2,-.3,.4,-.5l2.1,-2.4c.2,-.2,.4,-.5,.5,-.7c.1,-.2,.2,-.5,.2,-.8c0,-.4,-.2,-.7,-.4,-1c-.3,-.3,-.7,-.5,-1.2,-.5c-.2,0,-.4,.1,-.6,.2c-.2,.1,-.4,.2,-.5,.3c-.1,.2,-.2,.3,-.3,.5c0,.2,-.1,.4,-.1,.5h-.9c0,-.2,.1,-.5,.2,-.8c.1,-.2,.3,-.5,.5,-.7c.2,-.2,.5,-.4,.8,-.5c.2,-.1,.6,-.2,.9,-.2c.4,0,.7,.1,1,.2c.3,.1,.6,.3,.8,.5c.2,.2,.4,.4,.5,.7c.1,.2,.2,.5,.2,.9c0,.2,0,.3,-.1,.5c0,.2,-.1,.3,-.2,.5c-.1,.2,-.2,.3,-.3,.5c-.1,.1,-.2,.3,-.3,.4l-2.1,2.3c-.1,.2,-.3,.4,-.4,.6c-.2,.2,-.3,.4,-.3,.6h3.7Z" class="g0_1" />
<path d="M189,178.5h4.9v.8H189v-.8Z" class="g0_1" />
<path d="M200.4,183h-4.9c0,-.1,0,-.3,.1,-.5c.1,-.2,.2,-.4,.3,-.6c.1,-.3,.2,-.5,.3,-.7c.2,-.2,.3,-.3,.5,-.5l2.1,-2.4c.2,-.2,.4,-.5,.5,-.7c.1,-.2,.2,-.5,.2,-.8c0,-.4,-.2,-.7,-.4,-1c-.3,-.3,-.7,-.5,-1.2,-.5c-.2,0,-.4,.1,-.6,.2c-.2,.1,-.4,.2,-.5,.3c-.1,.2,-.2,.3,-.3,.5c0,.2,-.1,.4,-.1,.5h-.9c0,-.2,.1,-.5,.2,-.8c.1,-.2,.3,-.5,.5,-.7c.2,-.2,.4,-.4,.7,-.5c.3,-.1,.7,-.2,1,-.2c.4,0,.7,.1,1,.2c.3,.1,.6,.3,.8,.5c.2,.2,.4,.4,.5,.7c.1,.2,.2,.5,.2,.9c0,.2,0,.3,-.1,.5c-.1,.2,-.1,.3,-.2,.5c-.1,.2,-.2,.3,-.3,.5c-.1,.1,-.2,.3,-.3,.4l-2.1,2.3c-.1,.2,-.3,.4,-.4,.6c-.2,.2,-.3,.4,-.3,.6h3.7Z" class="g0_1" />
<path d="M206.6,183h-4.9c0,-.1,0,-.3,.1,-.5c0,-.2,.1,-.4,.2,-.6c.2,-.3,.3,-.5,.4,-.7c.2,-.2,.3,-.3,.5,-.5l2.1,-2.4c.2,-.2,.4,-.5,.5,-.7c.1,-.2,.2,-.5,.2,-.8c0,-.4,-.2,-.7,-.4,-1c-.3,-.3,-.7,-.5,-1.2,-.5c-.2,0,-.5,.1,-.6,.2c-.2,.1,-.4,.2,-.5,.3c-.1,.2,-.2,.3,-.3,.5c0,.2,-.1,.4,-.1,.5h-.9c0,-.2,0,-.5,.2,-.8c.1,-.2,.2,-.5,.4,-.7c.3,-.2,.5,-.4,.8,-.5c.3,-.1,.7,-.2,1,-.2c.4,0,.7,.1,1,.2c.3,.1,.6,.3,.8,.5c.2,.2,.4,.4,.5,.7c.1,.2,.2,.5,.2,.9c0,.2,-.1,.3,-.1,.5c-.1,.2,-.1,.3,-.2,.5c-.1,.2,-.2,.3,-.3,.5c-.1,.1,-.2,.3,-.3,.4l-2.1,2.3c-.2,.2,-.3,.4,-.5,.6c-.1,.2,-.2,.4,-.3,.6h3.8Z" class="g0_1" />
<path d="M211.8,176.9c0,-.5,-.1,-.8,-.4,-1.1c-.3,-.3,-.7,-.5,-1.1,-.5c-.5,0,-.9,.2,-1.2,.5c-.3,.3,-.4,.6,-.4,1.1c0,.4,.1,.8,.4,1.1c.3,.3,.7,.4,1.2,.4c.4,0,.8,-.1,1.1,-.4c.3,-.3,.4,-.7,.4,-1.1m.2,3.9c0,-.3,-.1,-.5,-.2,-.7c-.1,-.2,-.2,-.4,-.3,-.5c-.2,-.2,-.4,-.3,-.6,-.4c-.2,-.1,-.4,-.1,-.6,-.1c-.3,0,-.5,0,-.7,.1c-.3,.1,-.4,.2,-.6,.4c-.1,.1,-.3,.3,-.3,.5c-.1,.2,-.2,.4,-.2,.7c0,.2,.1,.4,.2,.6c.1,.2,.2,.4,.3,.6c.2,.1,.4,.2,.6,.3c.2,.1,.4,.1,.7,.1c.2,0,.4,0,.6,-.1c.2,-.1,.4,-.2,.6,-.3c.1,-.2,.2,-.4,.3,-.6c.1,-.2,.2,-.4,.2,-.6m.8,0c0,.4,0,.7,-.2,1c-.1,.2,-.3,.5,-.5,.7c-.2,.2,-.5,.4,-.8,.5c-.3,.1,-.7,.1,-1,.1c-.4,0,-.8,0,-1.1,-.1c-.3,-.1,-.6,-.3,-.8,-.5c-.2,-.2,-.4,-.4,-.5,-.7c-.2,-.3,-.2,-.6,-.2,-1c0,-.4,.1,-.7,.3,-1.1c.2,-.4,.5,-.7,1,-.9c-.4,-.2,-.7,-.5,-.9,-.8c-.2,-.4,-.3,-.8,-.3,-1.2c0,-.3,.1,-.6,.2,-.8c.1,-.3,.3,-.5,.5,-.7c.2,-.2,.5,-.4,.8,-.5c.3,-.1,.6,-.2,1,-.2c.3,0,.7,.1,1,.2c.3,.1,.5,.3,.7,.5c.2,.1,.4,.4,.5,.6c.1,.3,.2,.6,.2,.9c0,.4,-.1,.8,-.3,1.2c-.2,.3,-.5,.6,-.9,.8c.4,.1,.7,.4,1,.8c.2,.3,.3,.8,.3,1.2Z" class="g0_1" />
<path d="M218.9,180.4c0,.9,-.2,1.6,-.6,2c-.5,.5,-1.1,.7,-1.8,.7c-.4,0,-.7,0,-1,-.1c-.3,-.1,-.5,-.3,-.7,-.4c-.3,-.2,-.4,-.4,-.6,-.6c-.1,-.3,-.2,-.5,-.2,-.8h1c0,.1,0,.3,.1,.4c0,.2,.1,.3,.3,.4c.1,.1,.2,.2,.4,.3c.2,.1,.4,.1,.7,.1c.5,0,.9,-.2,1.2,-.5c.2,-.4,.4,-.9,.4,-1.5c0,-.7,-.2,-1.1,-.4,-1.5c-.3,-.3,-.7,-.5,-1.3,-.5c-.3,0,-.6,.1,-.8,.2c-.3,.2,-.5,.3,-.6,.5h-.8l.3,-4.4h4.2v.7h-3.4l-.2,2.9c.2,-.2,.4,-.4,.7,-.5c.3,-.1,.6,-.2,.9,-.2c.3,0,.6,.1,.8,.2c.3,.1,.6,.3,.8,.6c.2,.2,.3,.5,.5,.8c.1,.3,.1,.7,.1,1.2Z" class="g0_1" />
<path d="M220.4,178.5h4.9v.8h-4.9v-.8Z" class="g0_1" />
<path d="M231.9,180.8c0,.4,-.1,.7,-.2,1c-.2,.3,-.3,.5,-.6,.7c-.2,.2,-.5,.4,-.8,.5c-.3,.1,-.6,.1,-1,.1c-.4,0,-.8,0,-1.1,-.1c-.3,-.1,-.6,-.3,-.8,-.5c-.2,-.2,-.4,-.4,-.5,-.7c-.1,-.2,-.2,-.5,-.2,-.8h.9c0,.1,0,.3,.1,.5c.1,.2,.2,.3,.3,.5c.2,.1,.3,.2,.5,.3c.2,.1,.5,.1,.8,.1c.5,0,.9,-.1,1.2,-.4c.3,-.3,.4,-.7,.4,-1.2c0,-.5,-.1,-.9,-.4,-1.2c-.3,-.3,-.7,-.5,-1.3,-.5h-.3v-.7h.3c.5,0,.9,-.1,1.2,-.4c.2,-.3,.4,-.7,.4,-1.1c0,-.5,-.1,-.9,-.4,-1.2c-.3,-.3,-.6,-.4,-1.1,-.4c-.3,0,-.5,.1,-.7,.1c-.2,.1,-.3,.2,-.4,.4c-.2,.1,-.3,.3,-.3,.4c-.1,.2,-.1,.4,-.1,.5h-1c0,-.2,.1,-.5,.2,-.8c.1,-.2,.3,-.5,.5,-.6c.2,-.2,.5,-.4,.8,-.5c.3,-.1,.6,-.2,1,-.2c.3,0,.7,.1,.9,.2c.3,.1,.6,.2,.8,.4c.2,.2,.4,.5,.5,.7c.1,.3,.2,.6,.2,.9c0,.4,-.1,.8,-.3,1.1c-.2,.4,-.6,.7,-1,.9c.5,.1,.9,.4,1.1,.8c.2,.4,.4,.8,.4,1.2Z" class="g0_1" />
<path d="M237.2,180.5c0,-.5,-.2,-1,-.4,-1.4c-.3,-.3,-.7,-.5,-1.3,-.5c-.5,0,-.9,.2,-1.2,.6c-.2,.3,-.4,.8,-.4,1.3c0,.6,.2,1,.4,1.4c.3,.4,.7,.5,1.2,.5c.6,0,1,-.1,1.3,-.5c.2,-.4,.4,-.8,.4,-1.4m.8,0c0,.4,0,.8,-.2,1.1c-.1,.3,-.3,.6,-.5,.8c-.2,.2,-.5,.4,-.8,.5c-.3,.2,-.6,.2,-1,.2c-.3,0,-.7,0,-1,-.2c-.3,-.1,-.5,-.3,-.7,-.5c-.3,-.2,-.4,-.5,-.6,-.8c-.1,-.3,-.1,-.7,-.1,-1c0,-.4,0,-.8,.2,-1.2c.1,-.5,.3,-.9,.5,-1.3c.3,-.6,.6,-1.2,1,-1.8c.4,-.6,.7,-1.1,1,-1.6h1c-.2,.3,-.4,.6,-.6,.9c-.2,.3,-.4,.6,-.6,.9c-.2,.3,-.4,.6,-.6,.9c-.1,.3,-.3,.6,-.4,.9c.2,-.1,.5,-.2,.7,-.3c.2,0,.4,0,.7,0c.2,0,.5,.1,.7,.2c.3,.1,.5,.3,.7,.5c.2,.2,.4,.5,.5,.8c.1,.3,.1,.6,.1,1Z" class="g0_1" />
<path d="M240.1,177.3c0,.5,.2,1,.4,1.3c.3,.4,.7,.6,1.2,.6c.6,0,1,-.2,1.2,-.6c.3,-.4,.5,-.8,.5,-1.3c0,-.6,-.2,-1.1,-.4,-1.4c-.3,-.4,-.7,-.6,-1.3,-.6c-.5,0,-.9,.2,-1.2,.6c-.2,.3,-.4,.8,-.4,1.4m-.9,0c0,-.4,.1,-.8,.2,-1.1c.2,-.3,.3,-.6,.6,-.9c.2,-.2,.4,-.3,.7,-.5c.3,-.1,.7,-.1,1,-.1c.4,0,.7,0,1,.1c.3,.2,.6,.3,.8,.5c.2,.3,.4,.5,.5,.9c.2,.3,.2,.6,.2,1c0,.4,-.1,.7,-.2,1.2c-.1,.5,-.3,.9,-.5,1.3c-.3,.6,-.7,1.2,-1,1.8c-.4,.6,-.7,1.1,-1.1,1.6h-1c.2,-.3,.4,-.6,.7,-.9c.2,-.3,.4,-.6,.6,-.9c.2,-.3,.4,-.6,.5,-.9c.2,-.3,.3,-.6,.5,-.9c-.2,.1,-.5,.2,-.7,.3c-.2,0,-.4,0,-.7,0c-.3,0,-.5,-.1,-.8,-.2c-.2,-.1,-.5,-.3,-.6,-.5c-.2,-.3,-.4,-.5,-.5,-.8c-.1,-.3,-.2,-.7,-.2,-1Z" class="g0_1" />
<path d="M249.4,180.8V177c0,-.5,-.1,-.9,-.4,-1.2c-.3,-.3,-.7,-.5,-1.1,-.5c-.5,0,-.9,.2,-1.2,.5c-.3,.3,-.4,.7,-.4,1.2v3.8c0,.5,.1,.9,.4,1.2c.3,.3,.7,.5,1.2,.5c.4,0,.8,-.2,1.1,-.5c.3,-.3,.4,-.7,.4,-1.2m.9,0c0,.4,-.1,.7,-.2,1c-.1,.3,-.3,.5,-.5,.7c-.2,.2,-.5,.4,-.8,.5c-.3,.1,-.6,.2,-.9,.2c-.4,0,-.7,-.1,-1,-.2c-.3,-.1,-.5,-.3,-.8,-.5c-.2,-.2,-.4,-.4,-.5,-.7c-.1,-.3,-.2,-.6,-.2,-1v-3.9c0,-.3,.1,-.6,.2,-.9c.1,-.3,.3,-.5,.5,-.7c.3,-.2,.5,-.4,.8,-.5c.3,-.1,.6,-.2,1,-.2c.3,0,.6,.1,.9,.2c.3,.1,.6,.3,.8,.5c.2,.2,.4,.4,.5,.7c.1,.3,.2,.6,.2,.9Z" class="g0_1" />
<path d="M269.8,183.1h-1.2v-4.7c0,-.2,0,-.5,.1,-.9c0,-.3,0,-.7,0,-1.1c-.1,.2,-.2,.4,-.2,.5c-.1,.2,-.2,.4,-.2,.5c-.1,.2,-.1,.3,-.2,.5c-.1,.1,-.1,.2,-.1,.4l-1.8,3.9h-.8l-1.7,-4c-.1,-.1,-.1,-.2,-.2,-.3c0,-.2,-.1,-.3,-.1,-.5c-.1,-.1,-.2,-.3,-.3,-.5c0,-.2,-.1,-.3,-.1,-.5c0,.4,0,.8,0,1.1c0,.3,0,.6,0,.8v4.8h-1.2v-8.4h1.5l2,4.7c.1,.2,.2,.4,.3,.6c.1,.2,.1,.5,.2,.7c.1,-.2,.2,-.5,.3,-.7c.1,-.3,.1,-.4,.2,-.6l2,-4.7h1.5Z" class="g1_1" />
<path d="M271.8,182.2h1.3v1.4h-1.3v-1.4Z" class="g0_1" />
<path d="M281.1,180.8V177c0,-.4,-.1,-.7,-.3,-1c-.2,-.2,-.5,-.3,-.9,-.3c-.4,0,-.7,.1,-.9,.3c-.2,.3,-.3,.6,-.3,1v3.8c0,.4,.1,.7,.3,.9c.2,.3,.5,.4,.9,.4c.4,0,.7,-.1,.9,-.4c.2,-.2,.3,-.5,.3,-.9m1.5,0c0,.3,-.1,.7,-.2,1c-.2,.3,-.3,.6,-.6,.8c-.2,.2,-.5,.4,-.8,.5c-.4,.1,-.7,.2,-1.1,.2c-.4,0,-.7,-.1,-1.1,-.2c-.3,-.1,-.6,-.3,-.8,-.5c-.3,-.2,-.5,-.5,-.6,-.8c-.1,-.3,-.2,-.7,-.2,-1V177c0,-.4,.1,-.7,.2,-1c.1,-.3,.3,-.6,.6,-.8c.2,-.2,.5,-.4,.8,-.5c.4,-.1,.7,-.2,1.1,-.2c.4,0,.7,.1,1.1,.2c.3,.1,.6,.3,.8,.5c.3,.2,.4,.5,.6,.8c.1,.3,.2,.6,.2,1Z" class="g0_1" />
<path d="M286.2,176.3c-.2,.1,-.3,.3,-.4,.4c-.2,.1,-.4,.2,-.5,.3c-.2,.1,-.4,.2,-.6,.3c-.2,.1,-.3,.1,-.4,.2v-1.3c.3,-.1,.6,-.3,1,-.6c.3,-.3,.6,-.6,.8,-1h1.5v8.6h-1.4Z" class="g0_1" />
<path d="M294,180.8V177c0,-.4,-.1,-.7,-.3,-1c-.3,-.2,-.6,-.3,-.9,-.3c-.4,0,-.7,.1,-.9,.3c-.2,.3,-.4,.6,-.4,1v3.8c0,.4,.2,.7,.4,.9c.2,.3,.5,.4,.9,.4c.3,0,.6,-.1,.9,-.4c.2,-.2,.3,-.5,.3,-.9m1.5,0c0,.3,-.1,.7,-.2,1c-.2,.3,-.4,.6,-.6,.8c-.3,.2,-.5,.4,-.9,.5c-.3,.1,-.6,.2,-1,.2c-.4,0,-.8,-.1,-1.1,-.2c-.3,-.1,-.6,-.3,-.9,-.5c-.2,-.2,-.4,-.5,-.5,-.8c-.2,-.3,-.2,-.7,-.2,-1V177c0,-.4,0,-.7,.2,-1c.1,-.3,.3,-.6,.5,-.8c.3,-.2,.6,-.4,.9,-.5c.3,-.1,.7,-.2,1.1,-.2c.4,0,.7,.1,1,.2c.4,.1,.6,.3,.9,.5c.2,.2,.4,.5,.6,.8c.1,.3,.2,.6,.2,1Z" class="g0_1" />
<path d="M296.7,178.3h5.5v1.2h-5.5v-1.2Z" class="g0_1" />
<path d="M309.2,181.9h-.9v1.3h-1.4v-1.3h-3.7v-1.3l3.3,-6h1.6l-3.5,6.1h2.3v-2.8h1.4v2.8h.9Z" class="g0_1" />
<path d="M313.9,180.8V177c0,-.4,-.2,-.7,-.4,-1c-.2,-.2,-.5,-.3,-.9,-.3c-.3,0,-.6,.1,-.9,.3c-.2,.3,-.3,.6,-.3,1v3.8c0,.4,.1,.7,.3,.9c.3,.3,.6,.4,.9,.4c.4,0,.7,-.1,.9,-.4c.2,-.2,.4,-.5,.4,-.9m1.4,0c0,.3,0,.7,-.2,1c-.1,.3,-.3,.6,-.6,.8c-.2,.2,-.5,.4,-.8,.5c-.3,.1,-.7,.2,-1.1,.2c-.4,0,-.7,-.1,-1,-.2c-.4,-.1,-.7,-.3,-.9,-.5c-.2,-.2,-.4,-.5,-.6,-.8c-.1,-.3,-.2,-.7,-.2,-1V177c0,-.4,.1,-.7,.2,-1c.2,-.3,.4,-.6,.6,-.8c.2,-.2,.5,-.4,.9,-.5c.3,-.1,.6,-.2,1,-.2c.4,0,.8,.1,1.1,.2c.3,.1,.6,.3,.8,.5c.3,.2,.5,.5,.6,.8c.2,.3,.2,.6,.2,1Z" class="g0_1" />
<path d="M320.4,180.5c0,-.5,-.1,-.9,-.3,-1.2c-.3,-.3,-.6,-.5,-1,-.5c-.4,0,-.7,.2,-1,.5c-.2,.3,-.3,.7,-.3,1.2c0,.4,.1,.8,.3,1.1c.2,.3,.6,.5,1,.5c.4,0,.7,-.2,1,-.5c.2,-.3,.3,-.7,.3,-1.1m-1.9,-2.4c.1,-.1,.3,-.2,.5,-.2c.2,0,.4,-.1,.6,-.1c.3,0,.6,.1,.9,.2c.2,.2,.5,.3,.7,.6c.2,.2,.4,.5,.5,.8c.1,.3,.2,.7,.2,1c0,.5,-.1,.9,-.2,1.2c-.2,.4,-.4,.6,-.6,.9c-.3,.2,-.6,.4,-.9,.5c-.3,.2,-.7,.2,-1.1,.2c-.4,0,-.8,0,-1.1,-.2c-.4,-.1,-.7,-.3,-.9,-.5c-.2,-.2,-.4,-.5,-.5,-.9c-.2,-.3,-.2,-.7,-.2,-1.1c0,-.4,0,-.8,.2,-1.2c.1,-.5,.3,-.9,.5,-1.3c.1,-.3,.3,-.6,.5,-.9c.1,-.3,.3,-.6,.5,-.9c.2,-.3,.4,-.6,.5,-.9c.2,-.3,.4,-.5,.6,-.7h1.5c-.2,.2,-.4,.5,-.6,.8c-.2,.3,-.4,.6,-.6,.9c-.2,.3,-.4,.6,-.5,.9c-.2,.3,-.4,.6,-.5,.9Z" class="g0_1" />
<path d="M325.3,176.3c-.1,.1,-.2,.3,-.4,.4c-.2,.1,-.3,.2,-.5,.3c-.2,.1,-.3,.2,-.5,.3c-.2,.1,-.4,.1,-.5,.2v-1.3c.3,-.1,.7,-.3,1,-.6c.4,-.3,.7,-.6,.9,-1h1.5v8.6h-1.5Z" class="g0_1" />
<path d="M329.5,178.3h5.4v1.2h-5.4v-1.2Z" class="g0_1" />
<path d="M340.2,176.9c0,-.3,-.2,-.6,-.4,-.9c-.2,-.2,-.5,-.3,-.9,-.3c-.3,0,-.6,.1,-.9,.3c-.2,.3,-.3,.6,-.3,.9c0,.4,.1,.7,.3,1c.3,.2,.6,.3,.9,.3c.4,0,.7,-.1,.9,-.3c.2,-.3,.4,-.6,.4,-1m.1,3.8c0,-.4,-.1,-.7,-.4,-1c-.3,-.2,-.6,-.4,-1,-.4c-.4,0,-.7,.2,-1,.4c-.2,.3,-.4,.6,-.4,1c0,.4,.2,.7,.4,1c.3,.3,.6,.4,1,.4c.4,0,.7,-.1,1,-.4c.3,-.3,.4,-.6,.4,-1m1.5,0c0,.4,-.1,.8,-.2,1.1c-.2,.3,-.4,.5,-.6,.8c-.3,.2,-.6,.4,-.9,.5c-.4,.1,-.8,.2,-1.2,.2c-.4,0,-.8,-.1,-1.2,-.2c-.3,-.1,-.6,-.3,-.8,-.5c-.3,-.2,-.5,-.5,-.6,-.8c-.2,-.3,-.2,-.7,-.2,-1.1c0,-.3,.1,-.7,.3,-1.1c.3,-.4,.6,-.6,1,-.8c-.4,-.2,-.7,-.5,-.9,-.8c-.2,-.3,-.3,-.7,-.3,-1.1c0,-.3,0,-.7,.2,-1c.1,-.2,.3,-.5,.6,-.7c.2,-.2,.5,-.4,.8,-.5c.4,-.1,.7,-.2,1.1,-.2c.4,0,.8,.1,1.1,.2c.4,.1,.7,.3,.9,.5c.2,.2,.4,.5,.5,.7c.2,.3,.2,.7,.2,1c0,.4,-.1,.8,-.3,1.1c-.2,.4,-.5,.6,-.9,.8c.2,0,.4,.2,.6,.3c.1,.1,.3,.3,.4,.5c.1,.2,.2,.4,.3,.6c0,.1,.1,.3,.1,.5Z" class="g0_1" />
<path d="M345.2,176.3c-.1,.1,-.3,.3,-.4,.4c-.2,.1,-.4,.2,-.5,.3c-.2,.1,-.4,.2,-.6,.3c-.1,.1,-.3,.1,-.4,.2v-1.3c.3,-.1,.6,-.3,1,-.6c.3,-.3,.6,-.6,.8,-1h1.5v8.6h-1.4Z" class="g0_1" />
<path d="M353,176.9c0,-.3,-.1,-.6,-.3,-.9c-.3,-.2,-.6,-.3,-.9,-.3c-.4,0,-.7,.1,-.9,.3c-.3,.3,-.4,.6,-.4,.9c0,.4,.1,.7,.4,1c.2,.2,.5,.3,.9,.3c.3,0,.6,-.1,.9,-.3c.2,-.3,.3,-.6,.3,-1m.2,3.8c0,-.4,-.2,-.7,-.4,-1c-.3,-.2,-.6,-.4,-1,-.4c-.4,0,-.7,.2,-1,.4c-.3,.3,-.4,.6,-.4,1c0,.4,.1,.7,.4,1c.3,.3,.6,.4,1,.4c.4,0,.7,-.1,1,-.4c.2,-.3,.4,-.6,.4,-1m1.4,0c0,.4,0,.8,-.2,1.1c-.1,.3,-.3,.5,-.6,.8c-.2,.2,-.5,.4,-.9,.5c-.3,.1,-.7,.2,-1.1,.2c-.4,0,-.8,-.1,-1.2,-.2c-.3,-.1,-.6,-.3,-.9,-.5c-.2,-.2,-.4,-.5,-.6,-.8c-.1,-.3,-.2,-.7,-.2,-1.1c0,-.3,.2,-.7,.4,-1.1c.3,-.4,.6,-.6,1,-.8c-.4,-.2,-.7,-.5,-.9,-.8c-.2,-.3,-.4,-.7,-.4,-1.1c0,-.3,.1,-.7,.3,-1c.1,-.2,.3,-.5,.5,-.7c.3,-.2,.6,-.4,.9,-.5c.3,-.1,.7,-.2,1.1,-.2c.4,0,.8,.1,1.1,.2c.3,.1,.6,.3,.9,.5c.2,.2,.4,.5,.5,.7c.1,.3,.2,.7,.2,1c0,.4,-.1,.8,-.3,1.1c-.3,.4,-.6,.6,-.9,.8c.2,0,.4,.2,.5,.3c.2,.1,.3,.3,.4,.5c.2,.2,.3,.4,.3,.6c.1,.1,.1,.3,.1,.5Z" class="g0_1" />
<path d="M357,178.1c.2,-.2,.5,-.3,.7,-.4c.3,-.1,.6,-.2,.9,-.2c.7,0,1.3,.2,1.7,.7c.5,.5,.7,1.2,.7,2.1c0,1,-.3,1.7,-.7,2.2c-.5,.5,-1.2,.7,-2.1,.7c-.3,0,-.7,0,-1,-.1c-.3,-.1,-.6,-.3,-.9,-.5c-.2,-.2,-.4,-.4,-.5,-.7c-.2,-.3,-.3,-.6,-.3,-1H357c0,.4,.2,.6,.4,.8c.2,.3,.5,.4,.8,.4c.5,0,.8,-.2,1,-.5c.2,-.3,.3,-.7,.3,-1.3c0,-.5,-.1,-.9,-.3,-1.2c-.2,-.4,-.5,-.5,-1,-.5c-.2,0,-.5,.1,-.7,.2c-.2,.2,-.4,.3,-.5,.5h-1.3l.3,-4.7h4.8v1.2h-3.6Z" class="g0_1" />
<path d="M169.6,195.9h-5.4v-8.4h5.4v1h-4.2v2.7H169v1h-3.6v2.7h4.2Z" class="g1_1" />
<path d="M171.2,195h1.4v1.4h-1.4V195Z" class="g0_1" />
<path d="M179.5,190.8h-1.3v5.1h-.9v-5.1h-.7v-.7h.7v-1.2c0,-.5,.2,-.8,.4,-1.1c.3,-.2,.6,-.3,1,-.3h.8v.7h-.4c-.4,0,-.6,0,-.7,.2c-.1,.1,-.2,.3,-.2,.6v1.1h1.3Z" class="g0_1" />
<path d="M184.6,192.9c0,-.8,-.1,-1.4,-.4,-1.7c-.3,-.4,-.7,-.6,-1.2,-.6c-.5,0,-.9,.2,-1.2,.5c-.3,.4,-.4,1,-.4,1.8c0,.7,.1,1.3,.4,1.7c.2,.4,.6,.6,1.2,.6c.6,0,1,-.2,1.2,-.6c.3,-.4,.4,-1,.4,-1.7m.9,0c0,1.1,-.2,1.8,-.6,2.3c-.5,.5,-1.1,.7,-1.9,.7c-.8,0,-1.4,-.2,-1.9,-.7c-.4,-.5,-.6,-1.2,-.6,-2.3c0,-.6,0,-1,.2,-1.4c.1,-.4,.3,-.7,.5,-.9c.2,-.3,.5,-.5,.8,-.6c.3,-.1,.6,-.1,1,-.1c.4,0,.7,0,1,.1c.3,.1,.6,.3,.8,.6c.2,.2,.4,.5,.5,.9c.2,.4,.2,.8,.2,1.4Z" class="g0_1" />
<path d="M191.8,195.8h-.9c0,-.1,0,-.2,0,-.3c0,-.2,0,-.3,0,-.3c-.2,.2,-.5,.4,-.9,.5c-.3,.1,-.7,.2,-1.1,.2c-.3,0,-.5,-.1,-.8,-.1c-.2,-.1,-.5,-.2,-.6,-.4c-.2,-.2,-.4,-.4,-.5,-.7c-.1,-.2,-.2,-.5,-.2,-.9v-3.9h1v3.7c0,.5,.1,.9,.4,1.2c.2,.3,.6,.4,1.1,.4c.2,0,.4,-.1,.6,-.1c.2,-.1,.4,-.2,.5,-.4c.2,-.1,.3,-.3,.4,-.5c.1,-.2,.1,-.4,.1,-.6v-3.7h.9v4.9c0,.2,0,.4,0,.5c0,.2,0,.4,0,.5Z" class="g0_1" />
<path d="M197.4,190.1l-.4,.8c0,0,-.1,0,-.2,-.1c-.2,-.1,-.3,-.1,-.6,-.1c-.3,0,-.6,.1,-.8,.2c-.2,.1,-.4,.3,-.5,.4c-.2,.2,-.3,.5,-.4,.7c-.1,.2,-.1,.5,-.1,.8v3h-.9V191c0,-.1,0,-.2,0,-.5c0,-.2,0,-.4,0,-.6h.9c0,.2,0,.3,0,.5c0,.2,0,.4,0,.5c.3,-.3,.6,-.6,.9,-.7c.3,-.2,.7,-.3,1.2,-.3q.1,0,.2,0c.1,0,.2,.1,.3,.1c.1,0,.2,0,.2,.1c.1,0,.2,0,.2,0Z" class="g0_1" />
<path d="M202.4,192.9c0,-.7,-.1,-1.3,-.4,-1.7c-.3,-.4,-.7,-.6,-1.2,-.6c-.5,0,-.9,.2,-1.2,.6c-.2,.4,-.4,1,-.4,1.7c0,.8,.1,1.4,.4,1.7c.3,.4,.7,.6,1.2,.6c.6,0,1,-.2,1.2,-.5c.3,-.4,.4,-1,.4,-1.8m0,2.2c-.2,.3,-.5,.5,-.8,.6c-.3,.2,-.7,.2,-1,.2c-.7,0,-1.2,-.2,-1.7,-.7c-.4,-.4,-.6,-1.2,-.6,-2.3c0,-.5,.1,-.9,.2,-1.3c.1,-.4,.3,-.7,.5,-.9c.2,-.3,.5,-.5,.7,-.6c.3,-.1,.6,-.2,.9,-.2c.4,0,.7,.1,1,.2c.3,.2,.6,.4,.8,.6v-3.1h.9v7.3c0,.2,0,.3,.1,.5c0,.2,0,.3,0,.4h-.9c-.1,0,-.1,-.2,-.1,-.3c0,-.1,0,-.3,0,-.4Z" class="g0_1" />
<path d="M209.8,195.9h-4.9c0,-.2,0,-.4,.1,-.6c0,-.2,.1,-.4,.2,-.6c.1,-.2,.3,-.4,.4,-.6c.2,-.2,.3,-.4,.4,-.6l2.2,-2.4c.2,-.2,.4,-.4,.5,-.7c.1,-.2,.1,-.4,.1,-.7c0,-.5,-.1,-.8,-.4,-1.1c-.2,-.3,-.6,-.4,-1.1,-.4c-.3,0,-.5,0,-.7,.1c-.2,.1,-.3,.2,-.4,.4c-.2,.1,-.2,.3,-.3,.4c-.1,.2,-.1,.4,-.1,.6h-.9c0,-.3,0,-.6,.1,-.8c.2,-.3,.3,-.5,.5,-.7c.2,-.3,.5,-.4,.8,-.5c.3,-.2,.6,-.2,1,-.2c.4,0,.7,0,1,.1c.3,.1,.5,.3,.8,.5c.2,.2,.3,.4,.5,.7c.1,.3,.1,.6,.1,.9c0,.2,0,.4,0,.5c-.1,.2,-.2,.4,-.3,.5c0,.2,-.1,.4,-.2,.5c-.2,.2,-.3,.3,-.4,.4l-2,2.3c-.2,.2,-.3,.4,-.5,.6c-.1,.2,-.2,.5,-.3,.7h3.8Z" class="g0_1" />
<path d="M214.5,195.9h-.9v-7.2c-.3,.3,-.6,.5,-.9,.7c-.4,.2,-.7,.4,-1,.5v-.8c.3,-.1,.6,-.3,.9,-.6c.4,-.2,.6,-.5,.9,-1h1Z" class="g0_1" />
<path d="M222.6,191.3c0,-.3,-.1,-.6,-.3,-.8c-.1,-.2,-.4,-.3,-.8,-.3c-.2,0,-.4,0,-.7,.2c-.2,.1,-.3,.2,-.5,.4c-.1,.2,-.2,.5,-.3,.7c-.1,.3,-.2,.6,-.2,.8c0,.5,.1,.8,.3,1c.2,.2,.4,.3,.7,.3c.3,0,.5,-.1,.7,-.2c.2,-.2,.4,-.3,.5,-.5c.2,-.2,.3,-.5,.4,-.8c.1,-.2,.2,-.5,.2,-.8m2.1,-.4c0,-.4,-.1,-.8,-.3,-1.1c-.1,-.4,-.4,-.7,-.6,-.9c-.3,-.2,-.7,-.4,-1,-.6c-.4,-.1,-.8,-.2,-1.3,-.2c-.4,0,-.9,.1,-1.3,.3c-.4,.2,-.8,.5,-1.1,.8c-.4,.3,-.6,.7,-.8,1.2c-.2,.4,-.3,.9,-.4,1.5c0,1.1,.3,2,.9,2.6c.6,.6,1.5,.9,2.7,.9c.6,0,1.1,-.1,1.6,-.3c.5,-.3,.9,-.6,1.2,-.9h.7c-.1,.2,-.3,.5,-.6,.7c-.2,.2,-.5,.4,-.8,.6c-.3,.1,-.7,.3,-1.1,.4c-.3,.1,-.7,.1,-1.1,.1c-.7,0,-1.3,-.1,-1.8,-.3c-.6,-.2,-1,-.5,-1.4,-.9c-.3,-.3,-.6,-.8,-.8,-1.3c-.2,-.5,-.2,-1,-.2,-1.6c0,-.7,.2,-1.3,.4,-1.8c.3,-.5,.6,-1,1,-1.4c.4,-.3,.8,-.6,1.3,-.8c.5,-.3,1.1,-.4,1.6,-.4c.5,0,1,.1,1.5,.3c.4,.2,.8,.4,1.2,.7c.3,.3,.6,.6,.8,1c.2,.4,.3,.9,.3,1.4c0,.5,-.1,1,-.3,1.5c-.2,.4,-.4,.8,-.6,1c-.3,.3,-.6,.5,-.9,.6c-.3,.2,-.5,.2,-.7,.2c-.1,0,-.3,0,-.4,-.1c-.1,-.1,-.2,-.4,-.2,-.7c-.2,.3,-.5,.5,-.8,.6c-.3,.2,-.5,.2,-.8,.2c-.2,0,-.4,0,-.6,-.1c-.1,-.1,-.3,-.2,-.5,-.3c-.1,-.2,-.2,-.4,-.3,-.6c-.1,-.2,-.1,-.5,-.1,-.8c0,-.4,.1,-.8,.2,-1.1c.2,-.4,.3,-.7,.6,-1c.2,-.2,.4,-.4,.7,-.6c.3,-.1,.6,-.2,.9,-.2c.2,0,.5,.1,.8,.2c.2,.1,.5,.4,.6,.6l.2,-.6h.7l-1,3.3c0,.1,0,.3,0,.4c.1,.1,.1,.2,.3,.2c.1,0,.2,-.1,.4,-.2c.2,-.1,.4,-.3,.6,-.5c.2,-.3,.3,-.5,.4,-.9c.1,-.3,.2,-.7,.2,-1.1Z" class="g0_1" />
<path d="M232,195.8h-.8v-3.6c0,-.4,-.2,-.8,-.5,-1.1c-.2,-.3,-.6,-.5,-1.1,-.5c-.3,0,-.5,0,-.7,.1c-.2,.1,-.3,.3,-.5,.4c-.1,.2,-.2,.3,-.3,.5c-.1,.2,-.1,.5,-.1,.7v3.5h-.9V191c0,-.2,0,-.4,0,-.6c0,-.1,0,-.3,-.1,-.5h1c0,.2,0,.3,0,.4c0,.2,0,.3,0,.4c.2,-.3,.5,-.5,.9,-.6c.3,-.2,.7,-.2,1.1,-.2c.2,0,.5,0,.8,.1c.2,.1,.4,.3,.6,.4c.2,.2,.4,.4,.5,.7c.1,.3,.1,.5,.1,.9Z" class="g0_1" />
<path d="M237.2,193.8V193h-1.8c-.4,0,-.7,.1,-.9,.3c-.3,.2,-.4,.5,-.4,.8c0,.4,.1,.7,.4,.9c.2,.2,.5,.3,.9,.3c.3,0,.5,-.1,.7,-.2c.2,0,.4,-.1,.6,-.3c.1,-.1,.3,-.2,.4,-.4c.1,-.2,.1,-.4,.1,-.6m1,2h-1c0,0,0,-.1,0,-.3c0,-.1,0,-.2,0,-.3c-.2,.1,-.4,.3,-.5,.4c-.2,.1,-.4,.1,-.6,.2c-.2,0,-.4,.1,-.5,.1c-.2,0,-.3,0,-.5,0c-.6,0,-1.1,-.2,-1.4,-.5c-.4,-.3,-.5,-.7,-.5,-1.2c0,-.2,0,-.5,.1,-.7c.1,-.2,.2,-.4,.4,-.6c.2,-.2,.4,-.3,.6,-.4c.3,-.2,.6,-.2,.9,-.2h2v-.4c0,-.4,-.1,-.7,-.4,-1c-.2,-.2,-.6,-.4,-1.1,-.4c-.4,0,-.7,.1,-1,.3c-.2,.2,-.4,.4,-.4,.6h-1c0,-.2,.1,-.4,.2,-.6c.2,-.2,.3,-.3,.6,-.5c.2,-.1,.4,-.2,.7,-.3c.2,-.1,.5,-.1,.8,-.1c.8,0,1.5,.2,1.9,.5c.4,.4,.6,.9,.6,1.4V195c0,.1,0,.3,0,.4c0,.2,.1,.3,.1,.4Z" class="g0_1" />
<path d="M242.2,195.9h-.6c-.5,0,-.9,-.1,-1.2,-.4c-.2,-.2,-.3,-.6,-.3,-1.2v-3.5h-.8v-.7h.8v-1.9h.8v1.9h1.3v.7h-1.3v3.4c0,.4,.1,.6,.2,.8c.2,.1,.5,.2,.9,.2h.2Z" class="g0_1" />
<path d="M247.6,192.4c0,-.5,-.1,-.9,-.4,-1.3c-.3,-.4,-.7,-.5,-1.3,-.5c-.5,0,-.9,.1,-1.2,.5c-.3,.4,-.5,.8,-.5,1.3Zm.9,.7h-4.3c0,.7,.2,1.2,.5,1.6c.3,.4,.7,.5,1.3,.5c.4,0,.7,-.1,1,-.2c.2,-.2,.4,-.4,.4,-.6h1c0,.1,-.1,.3,-.2,.5c-.1,.2,-.3,.3,-.5,.5c-.2,.1,-.4,.3,-.7,.4c-.3,.1,-.6,.1,-1,.1c-.8,0,-1.5,-.2,-2,-.8c-.4,-.5,-.7,-1.2,-.7,-2.2c0,-.5,.1,-1,.2,-1.4c.2,-.3,.3,-.7,.6,-.9c.2,-.2,.5,-.4,.8,-.5c.3,-.2,.7,-.2,1,-.2c.4,0,.7,0,1,.1c.3,.2,.6,.3,.8,.6c.3,.2,.5,.5,.6,.8c.2,.4,.2,.8,.2,1.2Z" class="g0_1" />
<path d="M250.2,195.1h1.2v1.2h-1.2v-1.2Z" class="g0_1" />
<path d="M257.7,194.4c0,.2,-.1,.4,-.2,.6c-.1,.2,-.3,.3,-.5,.5c-.2,.1,-.4,.2,-.6,.3c-.3,.1,-.5,.1,-.7,.1c-.9,0,-1.5,-.3,-2,-.8c-.4,-.5,-.6,-1.3,-.6,-2.2c0,-1,.2,-1.7,.6,-2.2c.5,-.6,1.1,-.8,2,-.8c.2,0,.5,0,.7,.1c.3,.1,.5,.2,.6,.4c.2,.1,.4,.3,.5,.5c.1,.1,.2,.3,.2,.5h-1c0,-.2,-.2,-.4,-.4,-.5c-.2,-.2,-.4,-.3,-.8,-.3c-.5,0,-.9,.2,-1.1,.6c-.3,.4,-.4,1,-.4,1.7c0,.7,.1,1.2,.4,1.7c.2,.4,.6,.6,1.2,.6c.3,0,.5,-.1,.7,-.2c.2,-.1,.3,-.3,.4,-.6Z" class="g0_1" />
<path d="M262.6,192.9c0,-.8,-.1,-1.4,-.4,-1.7c-.2,-.4,-.6,-.6,-1.2,-.6c-.5,0,-.9,.2,-1.2,.5c-.2,.4,-.4,1,-.4,1.8c0,.7,.1,1.3,.4,1.7c.2,.4,.7,.6,1.2,.6c.6,0,1,-.2,1.2,-.6c.3,-.4,.4,-1,.4,-1.7m.9,0c0,1.1,-.2,1.8,-.6,2.3c-.4,.5,-1.1,.7,-1.9,.7c-.8,0,-1.4,-.2,-1.8,-.7c-.5,-.5,-.7,-1.2,-.7,-2.3c0,-.6,.1,-1,.2,-1.4c.1,-.4,.3,-.7,.5,-.9c.2,-.3,.5,-.5,.8,-.6c.3,-.1,.6,-.1,1,-.1c.4,0,.7,0,1,.1c.4,.1,.6,.3,.8,.6c.3,.2,.4,.5,.6,.9c.1,.4,.1,.8,.1,1.4Z" class="g0_1" />
<path d="M273.5,195.8h-.9v-3.6c0,-.5,-.1,-.9,-.4,-1.2c-.2,-.2,-.5,-.4,-1,-.4c-.3,0,-.5,.1,-.7,.2c-.1,0,-.3,.2,-.4,.3c-.2,.2,-.3,.3,-.3,.5c-.1,.2,-.1,.4,-.1,.6v3.6h-.9v-3.6c0,-.4,-.1,-.8,-.4,-1.1c-.2,-.3,-.6,-.5,-1.1,-.5c-.2,0,-.4,.1,-.6,.2c-.2,0,-.3,.2,-.5,.3c-.1,.2,-.2,.3,-.3,.5c0,.2,-.1,.4,-.1,.6v3.6h-.9v-4.9c0,-.1,0,-.3,0,-.4c0,-.2,0,-.4,0,-.6h.9c0,.2,0,.3,0,.5c0,.1,.1,.3,.1,.4c.1,-.3,.4,-.5,.7,-.7c.3,-.1,.6,-.2,1,-.2c.3,0,.7,.1,1,.3c.3,.2,.6,.4,.8,.8c.2,-.3,.4,-.6,.8,-.8c.3,-.2,.7,-.3,1.2,-.3c.6,0,1.1,.2,1.5,.5c.4,.4,.6,.9,.6,1.6Z" class="g0_1" />
<path d="M40,136.4c-.1,0,-.3,.3,-.6,.9c-.2,.5,-.5,1,-.7,1.4c-.3,.4,-.4,.6,-.6,.6c-.3,0,-.6,-.5,-.9,-1.5c-.3,-1,-.5,-1.8,-.5,-2.4c0,-.2,.1,-.4,.2,-.5c.1,-.1,.2,-.2,.4,-.2h.1c0,0,.1,0,.1,.1c.1,.1,.1,.2,.1,.3c0,0,0,.2,0,.4c0,.2,0,.4,0,.6c0,.5,0,.9,.2,1.4c.2,.5,.3,.7,.4,.7c.1,0,.3,-.4,.8,-1.2c.2,-.5,.4,-.9,.6,-1.1l.1,-.3c.2,-.3,.4,-.6,.5,-.7c.3,0,.4,.1,.4,.4c0,0,0,.1,0,.1q0,.1,0,.2c0,.5,.1,1,.3,1.6c.3,.5,.5,.8,.6,.8c.1,0,.2,-.3,.4,-.9c.3,-.7,.5,-1.3,.7,-1.7c.2,-.4,.3,-.7,.4,-.7c.1,-.1,.2,-.1,.4,-.1c0,0,.1,0,.1,0c.1,.1,.1,.2,.1,.2c0,.1,0,.2,0,.3c-.4,.4,-.7,1.1,-1,2c-.3,.9,-.5,1.4,-.6,1.6c-.1,.2,-.2,.3,-.2,.3c-.4,0,-.6,-.1,-.8,-.4c-.3,-.2,-.5,-.9,-.9,-1.9c0,-.1,-.1,-.2,-.1,-.3Z" class="g1_1" />
<path d="M47.3,136.4c-.1,0,-.3,.3,-.6,.9c-.2,.5,-.5,1,-.7,1.4c-.3,.4,-.5,.6,-.6,.6c-.4,0,-.7,-.5,-1,-1.5c-.2,-1,-.4,-1.8,-.4,-2.4c0,-.2,.1,-.4,.2,-.5c.1,-.1,.2,-.2,.3,-.2c0,0,.1,0,.1,0q.1,0,.2,.1c.1,.1,.1,.2,.1,.3c0,0,0,.2,0,.4c-.1,.2,-.1,.4,-.1,.6c0,.5,.1,.9,.3,1.4c.1,.5,.3,.7,.4,.7c0,0,.3,-.4,.7,-1.2c.3,-.5,.5,-.9,.6,-1.1l.1,-.3c.2,-.3,.4,-.6,.6,-.7c.2,0,.3,.1,.3,.4c0,0,0,.1,0,.1q0,.1,0,.2c0,.5,.1,1,.4,1.6c.3,.5,.5,.8,.6,.8c.1,0,.2,-.3,.4,-.9c.2,-.7,.4,-1.3,.6,-1.7c.2,-.4,.4,-.7,.5,-.7c.1,-.1,.2,-.1,.3,-.1q.1,0,.2,0c0,.1,.1,.2,.1,.2c0,.1,0,.2,-.1,.3c-.3,.4,-.6,1.1,-1,2c-.2,.9,-.4,1.4,-.5,1.6c-.1,.2,-.2,.3,-.3,.3c-.3,0,-.6,-.1,-.8,-.4c-.2,-.2,-.5,-.9,-.8,-1.9c-.1,-.1,-.1,-.2,-.1,-.3Z" class="g1_1" />
<path d="M54.5,136.4c-.1,0,-.3,.3,-.5,.9c-.3,.5,-.5,1,-.8,1.4c-.2,.4,-.4,.6,-.6,.6c-.3,0,-.6,-.5,-.9,-1.5c-.3,-1,-.4,-1.8,-.4,-2.4c0,-.2,0,-.4,.1,-.5c.1,-.1,.2,-.2,.4,-.2h.1c0,0,.1,0,.2,.1c0,.1,.1,.2,.1,.3c0,0,0,.2,-.1,.4c0,.2,0,.4,0,.6c0,.5,.1,.9,.2,1.4c.2,.5,.3,.7,.4,.7c.1,0,.3,-.4,.8,-1.2c.3,-.5,.5,-.9,.6,-1.1l.1,-.3c.2,-.3,.4,-.6,.5,-.7c.3,0,.4,.1,.4,.4c0,0,0,.1,0,.1q0,.1,0,.2c0,.5,.1,1,.4,1.6c.2,.5,.4,.8,.5,.8c.1,0,.2,-.3,.4,-.9c.3,-.7,.5,-1.3,.7,-1.7c.2,-.4,.4,-.7,.4,-.7c.1,-.1,.3,-.1,.4,-.1c0,0,.1,0,.2,0c0,.1,0,.2,0,.2c0,.1,0,.2,0,.3c-.4,.4,-.7,1.1,-1,2c-.3,.9,-.5,1.4,-.6,1.6c-.1,.2,-.1,.3,-.2,.3c-.3,0,-.6,-.1,-.8,-.4c-.2,-.2,-.5,-.9,-.9,-1.9c0,-.1,-.1,-.2,-.1,-.3Z" class="g1_1" />
<path d="M59.1,137.9h.1c0,0,.1,.1,.2,.1c0,.1,.1,.1,.1,.2c0,.2,-.1,.3,-.1,.4c-.1,.1,-.2,.1,-.3,.2c-.1,.1,-.2,.2,-.3,.2c-.1,0,-.2,-.1,-.2,-.1c-.1,-.1,-.1,-.2,-.1,-.4c0,-.3,0,-.4,0,-.4c0,-.1,.1,-.1,.2,-.1c.1,0,.2,-.1,.4,-.1Z" class="g1_1" />
<path d="M61.5,139.3c-.4,0,-.7,-.1,-.9,-.3c-.2,-.3,-.4,-.6,-.4,-1c0,-.7,.3,-1.5,.9,-2.3c.6,-.8,1.1,-1.2,1.6,-1.2c.2,0,.4,.1,.6,.4c.1,.2,.2,.5,.2,.7c0,.2,0,.3,-.1,.5q-.1,.1,-.2,.1c-.2,0,-.3,-.1,-.3,-.4c-.1,-.4,-.2,-.6,-.4,-.6c-.2,0,-.6,.4,-1,1.1c-.4,.6,-.6,1.2,-.6,1.7c0,.4,.3,.7,.8,.7c.4,0,.9,-.2,1.5,-.6c.2,-.1,.3,-.2,.4,-.2q.1,0,.1,.2c0,.2,-.2,.4,-.7,.7c-.5,.4,-1,.5,-1.5,.5Z" class="g1_1" />
<path d="M65.1,137.7c0,.3,.1,.5,.2,.7c.1,.2,.3,.2,.5,.2c.4,0,.8,-.2,1.2,-.6c.4,-.5,.6,-1,.6,-1.5c0,-.4,-.1,-.6,-.2,-.8c-.2,-.3,-.4,-.4,-.7,-.4c-.4,0,-.8,.3,-1.1,.9c-.3,.5,-.5,1,-.5,1.5m.6,1.6c-.4,0,-.7,-.2,-.9,-.4c-.3,-.3,-.4,-.7,-.4,-1.1c0,-.7,.2,-1.4,.7,-2.1c.5,-.7,1.1,-1,1.7,-1c.5,0,.8,.2,1.1,.5c.3,.3,.4,.7,.4,1.2c0,.7,-.3,1.4,-.8,2c-.6,.6,-1.2,.9,-1.8,.9Z" class="g1_1" />
<path d="M69.7,137.7c0,.3,.1,.5,.2,.7c.1,.2,.3,.2,.4,.2c.5,0,.9,-.2,1.3,-.6c.4,-.5,.6,-1,.6,-1.5c0,-.4,-.1,-.6,-.2,-.8c-.2,-.3,-.4,-.4,-.7,-.4c-.4,0,-.8,.3,-1.1,.9c-.3,.5,-.5,1,-.5,1.5m.6,1.6c-.4,0,-.7,-.2,-1,-.4c-.2,-.3,-.3,-.7,-.3,-1.1c0,-.7,.2,-1.4,.7,-2.1c.5,-.7,1,-1,1.7,-1c.5,0,.8,.2,1.1,.5c.3,.3,.4,.7,.4,1.2c0,.7,-.3,1.4,-.9,2c-.5,.6,-1.1,.9,-1.7,.9Z" class="g1_1" />
<path d="M74.5,137.2c0,-.1,.2,-.3,.7,-.7c.4,-.4,.7,-.6,.9,-.8c.6,-.6,1.1,-1,1.4,-1c.2,0,.3,.1,.3,.3c0,.3,-.1,.4,-.3,.6c-.3,.1,-.7,.3,-1.1,.7c-.5,.3,-.7,.5,-.7,.6c0,.1,.1,.3,.5,.7c.3,.3,.6,.6,.8,.7c.3,.2,.5,.3,.7,.3h.1c.1,0,.2,0,.2,.1c0,.1,-.1,.3,-.2,.4c-.2,.1,-.4,.2,-.6,.2c-.2,0,-.4,-.1,-.5,-.2c-.2,-.1,-.5,-.4,-.9,-.9c-.3,-.4,-.5,-.6,-.6,-.7c-.1,-.1,-.2,-.1,-.2,-.1c-.1,0,-.2,0,-.3,.2c-.2,.1,-.3,.2,-.3,.3c0,.1,0,.4,0,.9v.1c0,.1,-.1,.2,-.2,.3c-.1,.1,-.2,.1,-.3,.1c-.1,0,-.2,0,-.2,-.1c-.1,0,-.1,-.1,-.1,-.2c0,-.1,0,-.3,.1,-.7c.1,-.5,.2,-1.2,.3,-2.1c.2,-2.1,.3,-3.3,.4,-3.5c.1,-.3,.3,-.5,.5,-.5c.1,0,.1,.1,.2,.2c0,0,.1,.1,.1,.3c0,.2,-.1,.8,-.3,1.7c-.2,.9,-.4,1.9,-.4,2.8Z" class="g1_1" />
<path d="M80.1,134.9c.3,0,.6,0,.8,0c.3,-.1,.5,-.1,.7,-.1c.2,0,.3,0,.4,.1c0,0,0,.1,0,.2c0,.2,-.1,.3,-.4,.3c-.4,.1,-.8,.1,-1.1,.1c-.4,.1,-.6,.1,-.6,.2c0,0,-.1,.3,-.2,.9c-.2,.7,-.2,1.1,-.2,1.2c0,.3,0,.5,.1,.6c.1,.1,.2,.2,.3,.2c.3,0,.6,-.2,1,-.5c.2,-.2,.3,-.3,.4,-.3c.1,0,.2,.1,.2,.2c0,.2,-.2,.5,-.6,.8c-.4,.3,-.8,.5,-1.2,.5c-.6,0,-1,-.4,-1,-1.2c0,-.3,.1,-.7,.2,-1.3c.2,-.6,.2,-1,.2,-1.1h-.5c-.3,0,-.5,-.1,-.5,-.4c0,-.2,.1,-.2,.2,-.2h.9c0,0,.1,-.1,.1,-.1c.1,-.1,.1,-.3,.2,-.5c.1,-.3,.2,-.6,.3,-.9c0,-.3,.2,-.5,.3,-.5c.2,0,.3,.1,.3,.2c.1,0,.1,.1,.1,.2c0,0,0,.2,-.1,.6Z" class="g1_1" />
<path d="M82.9,137.8c1,-1.8,1.9,-2.8,2.5,-2.8c.2,0,.3,.1,.5,.3c.1,.2,.2,.7,.2,1.4c.1,.7,.3,1.2,.5,1.5c.1,.2,.2,.3,.2,.4c0,.1,-.1,.1,-.1,.2c-.1,.1,-.2,.1,-.3,.1c-.2,0,-.4,-.1,-.6,-.4c-.1,-.2,-.3,-.6,-.3,-1.2c0,-.6,-.1,-1,-.1,-1.1c-.1,-.2,-.2,-.3,-.3,-.3c-.3,0,-.9,.8,-1.8,2.3c-.2,.4,-.4,.7,-.5,.8c-.2,.2,-.3,.2,-.4,.2c-.1,0,-.2,0,-.3,-.1c-.1,0,-.1,-.1,-.1,-.2c0,-.1,0,-.3,.1,-.5c.3,-1.7,.6,-3.4,.8,-5.1c0,-.4,.1,-.7,.2,-.8c.1,-.1,.2,-.2,.2,-.2c.1,0,.2,0,.3,.1c.1,.1,.2,.3,.2,.4c0,.5,-.1,1.2,-.4,2.1c-.1,.4,-.2,1,-.4,1.7c-.1,.6,-.2,1,-.2,1.2h.1Z" class="g1_1" />
<path d="M88,137c1.1,-.6,1.7,-1.2,1.7,-1.6c0,-.2,0,-.3,-.2,-.3c-.3,0,-.5,.2,-.9,.6c-.3,.4,-.5,.8,-.6,1.3m2.8,.7c0,.3,-.2,.6,-.7,1c-.5,.4,-1,.6,-1.5,.6c-.5,0,-.8,-.1,-1.1,-.4c-.2,-.3,-.3,-.6,-.3,-1.1c0,-.8,.2,-1.5,.8,-2.2c.5,-.7,1.1,-1.1,1.7,-1.1c.2,0,.4,.1,.5,.2c.2,.2,.2,.3,.2,.5c0,.4,-.2,.8,-.6,1.2c-.4,.4,-1,.8,-1.7,1.2c-.1,0,-.2,.1,-.2,.2c0,.3,.1,.5,.2,.6c.1,.1,.3,.2,.6,.2c.6,0,1.2,-.3,1.8,-1c.1,-.1,.2,-.1,.2,-.1q.1,0,.1,.2Z" class="g1_1" />
<path d="M93.9,135.5c-.4,0,-.9,.3,-1.3,.9c-.4,.6,-.7,1.1,-.7,1.6c0,.4,.2,.5,.4,.5c.2,0,.5,-.1,.8,-.3c.3,-.2,.6,-.6,.9,-1.1c.3,-.5,.5,-.8,.5,-1.1c0,-.1,-.1,-.2,-.2,-.3c-.1,-.2,-.2,-.2,-.4,-.2m.6,1.9c-.4,.6,-.8,1,-1.2,1.3c-.4,.4,-.8,.5,-1.1,.5c-.3,0,-.5,-.1,-.7,-.3c-.1,-.2,-.2,-.5,-.2,-.8c0,-.7,.3,-1.4,.8,-2.1c.6,-.8,1.2,-1.1,1.9,-1.1c.3,0,.5,.1,.8,.3l.5,-2.6c.1,-.2,.2,-.3,.3,-.4c.1,-.1,.2,-.1,.2,-.1c.2,0,.3,.2,.3,.5c0,.1,0,.3,-.2,.7c-.2,.6,-.4,1.3,-.5,2.2c-.2,.9,-.3,1.6,-.3,2.1c0,.6,.1,.8,.4,.8c.1,0,.3,0,.4,-.1c.1,-.1,.2,-.1,.2,-.1c.1,0,.2,.1,.2,.2c0,.1,-.2,.3,-.4,.5c-.3,.1,-.5,.2,-.8,.2c-.4,0,-.7,-.4,-.7,-1.3c0,-.1,.1,-.3,.1,-.4Z" class="g1_1" />
<path d="M97.6,137c1.1,-.6,1.7,-1.2,1.7,-1.6c0,-.2,-.1,-.3,-.2,-.3c-.3,0,-.6,.2,-.9,.6c-.3,.4,-.5,.8,-.6,1.3m2.8,.7c0,.3,-.2,.6,-.7,1c-.5,.4,-1,.6,-1.6,.6c-.4,0,-.7,-.1,-1,-.4c-.2,-.3,-.3,-.6,-.3,-1.1c0,-.8,.2,-1.5,.8,-2.2c.5,-.7,1.1,-1.1,1.7,-1.1c.2,0,.4,.1,.5,.2c.1,.2,.2,.3,.2,.5c0,.4,-.2,.8,-.6,1.2c-.4,.4,-1,.8,-1.7,1.2c-.1,0,-.2,.1,-.2,.2c0,.3,.1,.5,.2,.6c.1,.1,.3,.2,.6,.2c.6,0,1.2,-.3,1.8,-1c.1,-.1,.2,-.1,.2,-.1q.1,0,.1,.2Z" class="g1_1" />
<path d="M103.2,138.1c0,-.1,-.3,-.3,-.7,-.6c-.6,-.3,-.9,-.5,-1.1,-.7c-.2,-.1,-.3,-.3,-.3,-.5c0,-.6,.3,-1,.8,-1.4c.6,-.3,1,-.5,1.3,-.5c.3,0,.4,0,.5,.1c.1,.1,.2,.2,.2,.4c0,.1,-.1,.2,-.1,.2c-.1,.1,-.2,.1,-.2,.1c0,0,-.1,0,-.2,-.1q-.1,0,-.1,0c-.2,0,-.5,.1,-.9,.3c-.4,.2,-.6,.4,-.6,.7c0,.1,.1,.3,.2,.4c.1,.1,.4,.3,.8,.4c.3,.2,.6,.3,.8,.5c.1,.2,.2,.4,.2,.6c0,.4,-.3,.8,-.8,1c-.6,.2,-1.2,.3,-1.7,.3c-.5,0,-.7,-.1,-.7,-.4c0,-.1,.1,-.2,.2,-.2c.1,-.1,.2,-.1,.3,-.1c0,0,.1,0,.2,0c.1,.1,.2,.1,.2,.1c.3,0,.7,-.1,1,-.2c.4,-.1,.6,-.2,.7,-.4Z" class="g1_1" />
<path d="M105.8,133.6c-.1,0,-.1,-.1,-.1,-.2c0,0,-.1,-.1,-.1,-.1c0,-.2,-.1,-.4,-.1,-.5c0,-.1,.1,-.2,.2,-.3c.1,-.1,.3,-.2,.4,-.2c.1,0,.2,0,.3,.1c.1,.1,.2,.1,.2,.2c0,.1,-.1,.2,-.1,.4c-.1,.3,-.2,.4,-.4,.5c-.1,0,-.2,.1,-.3,.1m-.5,4.6c0,.2,0,.4,0,.7c.1,0,.1,.1,.1,.1c0,0,-.1,.1,-.2,.2c-.1,.1,-.2,.1,-.3,.1c-.2,0,-.4,-.2,-.4,-.7c0,-.5,.1,-1.3,.4,-2.4c0,-.4,.1,-.6,.1,-.7c0,-.2,0,-.3,.1,-.5c0,-.1,.1,-.1,.2,-.1c.2,0,.3,0,.4,.1c0,0,.1,.1,.1,.2c0,.1,0,.2,-.1,.3c-.2,.7,-.3,1.2,-.4,1.6c0,.3,0,.6,0,1.1Z" class="g1_1" />
<path d="M109.6,135.3c-.2,0,-.5,.2,-.9,.4c-.3,.2,-.6,.6,-1,1.1c-.3,.4,-.5,.8,-.5,1.1c0,.1,.1,.2,.1,.3c.1,0,.2,.1,.3,.1c.2,0,.5,-.1,.9,-.4c.4,-.3,.8,-.6,1,-1.1c.3,-.4,.5,-.7,.5,-1c0,-.3,-.1,-.5,-.4,-.5m0,2.3c0,0,-.1,0,-.2,.2c-.3,.3,-.6,.6,-1,.8c-.4,.2,-.8,.3,-1.1,.3c-.2,0,-.4,0,-.6,-.2c-.1,-.1,-.2,-.4,-.2,-.6c0,-.5,.2,-.9,.5,-1.4c.3,-.6,.8,-1,1.4,-1.4c.5,-.4,1,-.6,1.5,-.6c.2,0,.4,.1,.6,.2c0,0,.1,.1,.1,.1c0,0,.1,.1,.1,.2c.1,.1,.1,.2,.1,.3c0,0,0,.1,0,.1c-.2,.5,-.3,.9,-.4,1.2c-.1,.3,-.1,.8,-.2,1.5c-.1,.6,-.1,1.1,-.2,1.4c-.1,.4,-.2,.7,-.4,1c-.2,.4,-.5,.6,-.7,.8c-.3,.1,-.6,.2,-.9,.2c-.5,0,-1,-.2,-1.5,-.5c-.5,-.4,-.8,-.7,-.8,-.9c0,-.1,.1,-.2,.2,-.2c0,0,.2,.1,.4,.3c.6,.4,1.2,.6,1.8,.6c.4,0,.7,-.2,1,-.7c.2,-.5,.4,-1.2,.5,-2.2c0,-.2,0,-.4,0,-.5Z" class="g1_1" />
<path d="M114.2,135.9c-.2,0,-.3,.1,-.5,.3c-.2,.2,-.4,.6,-.8,1.3c-.4,.8,-.7,1.3,-.9,1.4c-.1,.2,-.2,.2,-.3,.2c-.3,0,-.5,-.1,-.5,-.4c0,-.2,0,-.4,.1,-.6c.1,-.8,.2,-1.7,.2,-2.6c0,-.1,.1,-.2,.2,-.4c0,-.1,.1,-.2,.2,-.2c.2,0,.3,.1,.3,.2c.1,.1,.1,.2,.1,.5c0,.3,-.1,.8,-.2,1.7c-.1,.3,-.1,.5,-.1,.6c.1,0,.2,-.3,.6,-1c.3,-.6,.6,-1.1,.9,-1.4c.3,-.2,.5,-.4,.8,-.4c.3,0,.5,.1,.7,.4c.1,.2,.2,.6,.3,1.2c.1,.7,.1,1.1,.2,1.3c.1,.1,.2,.2,.3,.2c.1,0,.2,0,.3,-.1c0,0,.1,0,.1,0c.1,0,.2,.1,.2,.2c0,.1,-.1,.3,-.3,.4c-.2,.1,-.4,.2,-.6,.2c-.2,0,-.4,-.1,-.5,-.3c-.2,-.2,-.3,-.7,-.3,-1.5c-.1,-.8,-.3,-1.2,-.5,-1.2Z" class="g1_1" />
<path d="M117.4,137.9h.1c0,0,.1,.1,.1,.1q.1,.1,.1,.2c0,.2,0,.3,0,.4c-.1,.1,-.2,.1,-.3,.2c-.2,.1,-.2,.2,-.3,.2c-.1,0,-.2,-.1,-.3,-.1c0,-.1,0,-.2,0,-.4c0,-.3,0,-.4,0,-.4c0,-.1,.1,-.1,.2,-.1c.1,0,.2,-.1,.4,-.1Z" class="g1_1" />
<path d="M119.8,139.3c-.4,0,-.7,-.1,-.9,-.3c-.3,-.3,-.4,-.6,-.4,-1c0,-.7,.3,-1.5,.9,-2.3c.6,-.8,1.1,-1.2,1.6,-1.2c.2,0,.4,.1,.6,.4c.1,.2,.2,.5,.2,.7c0,.2,0,.3,-.1,.5q-.1,.1,-.2,.1c-.2,0,-.3,-.1,-.4,-.4c0,-.4,-.1,-.6,-.3,-.6c-.3,0,-.6,.4,-1,1.1c-.4,.6,-.6,1.2,-.6,1.7c0,.4,.3,.7,.8,.7c.4,0,.9,-.2,1.4,-.6c.2,-.1,.4,-.2,.5,-.2q.1,0,.1,.2c0,.2,-.2,.4,-.7,.7c-.5,.4,-1,.5,-1.5,.5Z" class="g1_1" />
<path d="M123.4,137.7c0,.3,.1,.5,.2,.7c.1,.2,.3,.2,.4,.2c.5,0,.9,-.2,1.3,-.6c.4,-.5,.6,-1,.6,-1.5c0,-.4,-.1,-.6,-.2,-.8c-.2,-.3,-.4,-.4,-.7,-.4c-.4,0,-.8,.3,-1.1,.9c-.3,.5,-.5,1,-.5,1.5m.6,1.6c-.4,0,-.7,-.2,-1,-.4c-.2,-.3,-.3,-.7,-.3,-1.1c0,-.7,.2,-1.4,.7,-2.1c.5,-.7,1,-1,1.7,-1c.5,0,.8,.2,1.1,.5c.3,.3,.4,.7,.4,1.2c0,.7,-.3,1.4,-.9,2c-.5,.6,-1.1,.9,-1.7,.9Z" class="g1_1" />
<path d="M130.5,135.8c-.3,0,-.8,.8,-1.7,2.3c-.3,.5,-.4,.8,-.5,.8c0,.1,-.1,.1,-.2,.1c-.2,.1,-.3,.1,-.3,.1c-.2,0,-.3,-.4,-.3,-1.1c0,-.4,.1,-1.1,.2,-2.2c.1,-.4,.2,-.7,.2,-.9q0,-.2,.2,-.2c.3,0,.5,.2,.5,.6c0,.2,-.1,.6,-.2,1.2c-.1,.7,-.2,1.1,-.2,1.3c.2,-.2,.4,-.6,.8,-1.1c.4,-.8,.8,-1.3,1,-1.5c.2,-.2,.5,-.3,.7,-.3c.2,0,.3,.2,.4,.4c.1,.2,.2,.8,.2,1.7c0,.2,0,.4,.1,.5c0,.1,0,.2,.1,.2c.1,0,.4,-.5,.8,-1.4c.2,-.4,.5,-.8,.7,-1c.2,-.2,.4,-.4,.7,-.4c.2,0,.4,.1,.5,.4c.1,.2,.2,.5,.2,1c.1,.4,.1,.9,.2,1.2c.1,.4,.3,.7,.5,.8c.1,0,.2,.1,.2,.2c0,.1,0,.2,-.2,.3c-.1,.1,-.2,.2,-.3,.2c-.3,0,-.5,-.2,-.6,-.4c-.2,-.3,-.3,-.9,-.4,-1.8c-.1,-.3,-.1,-.6,-.1,-.7c-.1,-.2,-.1,-.3,-.2,-.3c-.1,0,-.3,.1,-.4,.4c-.2,.2,-.4,.6,-.8,1.3c-.3,.5,-.5,.9,-.6,1c-.2,.2,-.3,.3,-.4,.3c-.1,0,-.2,0,-.3,-.1c-.1,-.1,-.2,-.2,-.2,-.4c0,-.1,-.1,-.4,-.1,-1c0,-.8,-.1,-1.3,-.2,-1.5Z" class="g1_1" />
<path d="M296.6,94.3c.2,-1,.3,-2,.3,-2.9h-7.6c-.3,0,-.7,0,-1,0c-.3,0,-.6,0,-1,.1V90c.4,0,.7,.1,1,.1c.3,0,.7,0,1,0h9.2c-.1,.5,-.1,1.1,-.1,1.7c-.1,.7,-.2,1.3,-.2,1.9c-.1,.7,-.2,1.3,-.3,2c-.1,.6,-.2,1.1,-.3,1.6c.5,0,.9,0,1.3,0c.4,0,.8,0,1.3,-.1v1.5c-.5,0,-.9,-.1,-1.3,-.1c-.5,0,-.9,0,-1.4,0h-4V104c0,.3,0,.6,0,.9c0,.4,.1,.7,.1,.9H292c0,-.3,0,-.6,0,-.9c0,-.3,0,-.6,0,-.9V98.6h-3.7c-.5,0,-.9,0,-1.3,0c-.5,0,-.9,.1,-1.4,.1V97.2c.5,.1,.9,.1,1.4,.1c.4,0,.8,0,1.3,0h7.9c.2,-.9,.3,-1.9,.4,-3Z" class="g2_1" />
<path d="M326.4,94.5c-.2,0,-.4,0,-.6,0c-.3,0,-.5,0,-.7,.1V93.1c.2,.1,.4,.1,.7,.1c.2,0,.4,0,.6,0h2V91.3c0,-.3,0,-.6,0,-.9c0,-.3,0,-.6,-.1,-.9h1.6c0,.3,0,.6,0,.9c0,.3,0,.6,0,.9v6.3c0,.3,0,.6,0,.9c0,.3,0,.6,0,.9h-1.6c.1,-.3,.1,-.6,.1,-.9c0,-.3,0,-.6,0,-.9V94.5Zm-5.3,9.2c.2,.3,.5,.5,.9,.7c.3,.1,.7,.3,1.2,.4c.5,.1,1,.1,1.5,.1c.6,0,1.1,0,1.5,-.1c.5,-.1,.9,-.3,1.3,-.4c.3,-.2,.6,-.4,.8,-.7c.2,-.2,.3,-.5,.3,-.9c0,-.3,-.1,-.6,-.3,-.8c-.2,-.3,-.5,-.5,-.8,-.7c-.4,-.2,-.8,-.3,-1.3,-.4c-.4,-.1,-.9,-.1,-1.5,-.1c-.5,0,-1,0,-1.5,.1c-.5,.1,-.9,.2,-1.2,.4c-.4,.2,-.7,.4,-.9,.6c-.2,.3,-.3,.6,-.3,.9c0,.4,.1,.6,.3,.9m-1.5,-2.2c.3,-.4,.6,-.7,1.1,-1c.5,-.3,1.1,-.6,1.7,-.7c.7,-.2,1.5,-.3,2.3,-.3c1.7,0,3.1,.3,4,1c1,.6,1.5,1.4,1.5,2.3c0,1,-.5,1.8,-1.5,2.4c-.9,.6,-2.3,.9,-4,.9c-1.7,0,-3,-.3,-4,-.9c-.9,-.6,-1.4,-1.4,-1.4,-2.4c0,-.4,.1,-.9,.3,-1.3m-.7,-10c-.2,0,-.4,0,-.6,.1c-.2,0,-.4,0,-.7,0V90.2c.3,0,.5,0,.7,0c.2,0,.4,0,.6,0h5.2c.2,0,.4,0,.6,0c.2,0,.4,0,.7,0v1.4c-.3,0,-.5,0,-.7,0c-.2,-.1,-.4,-.1,-.6,-.1h-1.8v.7c0,.7,.1,1.3,.3,1.8c.2,.5,.5,1,.8,1.4c.4,.4,.9,.8,1.4,1.2c.5,.3,1,.5,1.6,.7c-.2,.2,-.4,.4,-.6,.6c-.2,.2,-.3,.4,-.4,.5c-.4,-.1,-.7,-.3,-1.1,-.5c-.4,-.3,-.8,-.6,-1.1,-.9c-.4,-.2,-.7,-.5,-1,-.9c-.3,-.3,-.5,-.7,-.7,-1.1c-.1,.4,-.3,.8,-.6,1.2c-.3,.3,-.6,.7,-.9,1c-.3,.4,-.7,.7,-1.1,1c-.4,.2,-.9,.5,-1.3,.7c-.1,-.1,-.3,-.3,-.5,-.5c-.3,-.2,-.5,-.4,-.7,-.5c.7,-.3,1.3,-.6,1.9,-1.1c.6,-.4,1.1,-.9,1.5,-1.4c.3,-.5,.5,-.9,.7,-1.5c.2,-.5,.2,-1.1,.2,-1.7v-.7Z" class="g2_1" />
<path d="M360.6,95.2c.3,0,.5,0,.7,0c.2,0,.5,0,.7,-.1v1.6c-.2,-.1,-.5,-.1,-.7,-.1c-.2,0,-.5,0,-.7,0h-1v6.8c0,.4,0,.8,0,1.2c0,.4,.1,.8,.1,1.2h-1.6c0,-.4,0,-.8,.1,-1.2c0,-.4,0,-.8,0,-1.2V91.9c0,-.4,0,-.8,0,-1.2c-.1,-.4,-.1,-.8,-.1,-1.2h1.6c0,.4,-.1,.8,-.1,1.2c0,.4,0,.8,0,1.2v3.3ZM349.4,98c.1,.6,.2,1.1,.4,1.6c.2,.4,.5,.8,.8,1c.3,.3,.7,.4,1.1,.4c.3,0,.7,-.1,1,-.4c.3,-.2,.5,-.6,.7,-1c.2,-.5,.4,-1,.5,-1.6c.1,-.6,.2,-1.2,.2,-1.9c0,-.6,-.1,-1.2,-.2,-1.7c-.1,-.6,-.3,-1.1,-.5,-1.6c-.2,-.4,-.4,-.8,-.7,-1.1c-.3,-.2,-.7,-.4,-1,-.4c-.4,0,-.8,.2,-1.1,.4c-.3,.3,-.6,.7,-.8,1.1c-.2,.5,-.3,1,-.4,1.6c-.1,.5,-.2,1.1,-.2,1.7c0,.7,.1,1.3,.2,1.9m-1.3,-4.6c.2,-.8,.5,-1.5,.9,-2c.4,-.5,.8,-.8,1.2,-1.1c.5,-.2,1,-.3,1.4,-.3c.5,0,1,.1,1.5,.3c.4,.3,.8,.7,1.2,1.2c.4,.5,.7,1.1,.9,1.9c.2,.8,.3,1.7,.3,2.8c0,1,-.1,1.9,-.3,2.7c-.2,.8,-.5,1.4,-.9,2c-.3,.5,-.8,.9,-1.2,1.1c-.5,.3,-1,.4,-1.5,.4c-.5,0,-.9,-.1,-1.4,-.4c-.5,-.2,-.9,-.6,-1.2,-1.1c-.4,-.5,-.7,-1.2,-.9,-2c-.3,-.7,-.4,-1.7,-.4,-2.7c0,-1.1,.2,-2,.4,-2.8Z" class="g2_1" />
<path d="M106.4,63.6c0,-1.2,-.8,-1.8,-2.3,-1.8c-1.1,0,-2.4,.8,-3.8,2.3v1.8c.6,.2,1.4,.2,2.4,.2c.9,0,1.7,-.1,2.4,-.5c.9,-.5,1.3,-1.1,1.3,-2m2.9,-.6c0,2.2,-1,3.6,-2.9,4.3c0,.4,.4,1.2,1.2,2.3l1.2,1.6c0,.2,-.4,.2,-1.2,.3c-.5,0,-.9,0,-1.2,0c-.6,0,-1,-.1,-1.1,-.4c-.4,-.6,-1,-1.6,-1.8,-2.8c-.1,-.2,-1,-.2,-2.7,-.2h-.5v3c0,.3,-.1,.4,-.3,.4c-.2,0,-.6,0,-1.1,0c-.5,0,-.9,0,-1.2,0c-.2,0,-.3,-.2,-.3,-.5V63.4c0,-1,0,-2.5,-.1,-4.5c-.1,-2,-.1,-3.5,-.1,-4.5c0,-.2,.1,-.3,.2,-.3c.3,0,.7,0,1.3,0c.1,0,.3,-.1,.7,-.1c.3,-.1,.5,-.1,.7,-.1c.1,0,.2,.1,.2,.3c0,.5,0,1.1,-.1,2c0,.9,0,1.5,0,2v3.2c0,.1,0,.2,.1,.2c.2,-.1,.5,-.4,.9,-.7c1.3,-1.1,2.7,-1.6,3.9,-1.6c1.2,0,2.2,.3,3,.9c.8,.7,1.2,1.6,1.2,2.8M94.1,65.5c0,-1,-.3,-1.9,-.9,-2.6c-.6,-.7,-1.4,-1.1,-2.4,-1.1c-1,0,-1.8,.4,-2.5,1.1c-.6,.7,-.9,1.6,-.9,2.6c0,1,.3,1.8,.9,2.6c.7,.7,1.5,1.1,2.5,1.1c1,0,1.8,-.4,2.4,-1.1c.6,-.8,.9,-1.6,.9,-2.6m2.6,0c0,1.7,-.5,3.2,-1.6,4.4c-1.2,1.2,-2.6,1.9,-4.3,1.9c-1.7,0,-3.2,-.7,-4.3,-1.9C85.4,68.7,84.8,67.2,84.8,65.5c0,-1.7,.6,-3.2,1.7,-4.4c1.2,-1.2,2.6,-1.8,4.3,-1.8c1.7,0,3.1,.6,4.2,1.8c1.2,1.2,1.7,2.7,1.7,4.4m-14.2,0c0,-1,-.3,-1.9,-.9,-2.6c-.7,-.7,-1.5,-1.1,-2.5,-1.1c-.9,0,-1.8,.4,-2.4,1.1c-.6,.7,-.9,1.6,-.9,2.6c0,1,.3,1.8,.9,2.6c.7,.7,1.5,1.1,2.4,1.1c1,0,1.8,-.4,2.5,-1.1c.6,-.8,.9,-1.6,.9,-2.6m2.6,0c0,1.7,-.6,3.2,-1.7,4.4c-1.1,1.2,-2.6,1.9,-4.3,1.9c-1.7,0,-3.1,-.7,-4.2,-1.9C73.7,68.7,73.2,67.2,73.2,65.5c0,-1.7,.5,-3.2,1.7,-4.4c1.1,-1.2,2.5,-1.8,4.2,-1.8c1.7,0,3.2,.6,4.3,1.8c1.1,1.2,1.7,2.7,1.7,4.4M73.9,68.6c0,.1,-.1,.3,-.3,.5C72,70.9,70,71.8,67.7,71.8c-2.5,0,-4.5,-.9,-6,-2.7c-1.3,-1.6,-2,-3.7,-2,-6.2c0,-2.6,.7,-4.7,2.1,-6.4c1.5,-1.8,3.5,-2.7,5.9,-2.7c2.5,0,4.4,.8,5.8,2.5c.1,.2,.2,.3,.2,.5c0,.1,-.2,.5,-.7,1.2c-.4,.7,-.7,1,-.7,1c-.2,0,-.4,-.2,-.8,-.6c-.5,-.5,-.9,-.8,-1.4,-1.1c-.7,-.4,-1.5,-.6,-2.3,-.6c-1.6,0,-2.9,.6,-3.8,1.9c-.8,1.1,-1.2,2.5,-1.2,4.2c0,1.6,.4,3.1,1.2,4.2c.9,1.3,2.1,1.9,3.8,1.9c.8,0,1.5,-.2,2.3,-.6c.5,-.3,1,-.6,1.5,-1.1c.4,-.4,.7,-.6,.7,-.6c.1,0,.3,.3,.8,1c.5,.6,.8,1,.8,1Z" class="g3_1" />
<path d="M118.6,80.4c0,-.4,-.2,-.8,-.5,-1.2c-.4,-.4,-.8,-.5,-1.2,-.5c-.5,0,-1,.2,-1.4,.6c-.4,.4,-.6,.8,-.6,1.4c0,.1,.1,.1,.3,.1c.8,0,1.8,-.1,2.9,-.2c.4,-.1,.5,-.1,.5,-.2m2,.5c0,.4,-.2,.7,-.5,.8c-.3,.1,-2,.3,-5.2,.5c.1,.5,.4,.9,.9,1.3c.4,.3,.9,.4,1.4,.4c.8,0,1.6,-.2,2.4,-.8q.1,-.1,.2,-.2q.1,0,.1,0c0,0,.1,.2,.3,.6c.2,.4,.3,.6,.3,.6c0,0,0,.1,-.1,.2c-.8,.8,-1.9,1.3,-3.1,1.3c-1.3,0,-2.3,-.4,-3.1,-1.2c-.7,-.7,-1.1,-1.8,-1.1,-3c0,-1.2,.3,-2.2,1.1,-3c.7,-.9,1.7,-1.3,2.8,-1.3c1,0,1.9,.4,2.6,1.1c.6,.8,1,1.7,1,2.7m-7.7,4.2c0,.2,-.1,.3,-.2,.3c-.2,0,-.4,0,-.8,0c-.3,0,-.6,-.1,-.8,-.1c-.1,0,-.2,0,-.2,-.2c0,-.3,0,-.7,.1,-1.2c0,-.6,0,-1,0,-1.2c0,-.3,0,-.7,0,-1.2c-.1,-.5,-.1,-.9,-.1,-1.1c0,-1,-.4,-1.5,-1.4,-1.5c-.3,0,-.7,.1,-1.2,.4c-.5,.4,-.7,.7,-.7,.9v4.9c0,.2,-.1,.3,-.2,.3c-.2,0,-.4,0,-.8,0c-.3,0,-.6,-.1,-.8,-.1q-.1,0,-.1,-.2v-4c0,-.6,-.1,-2,-.2,-4.1c0,-.7,0,-1.6,-.1,-2.9q0,-.1,0,-.1c0,-.1,0,-.2,.1,-.2c.1,0,.4,-.1,.9,-.1c.1,0,.3,0,.5,0c.3,-.1,.4,-.1,.5,-.1c.1,0,.2,.1,.2,.2c0,.5,-.1,1.3,-.1,2.3c-.1,1,-.1,1.8,-.1,2.3c0,.2,.1,.2,.1,.2c.3,-.2,.6,-.5,1.1,-.8c.5,-.4,1.1,-.5,1.7,-.5c1,0,1.7,.3,2.1,.9c.3,.4,.5,1.2,.5,2.1c0,.2,-.1,.5,-.1,.8c0,.4,0,.6,0,.8c0,.4,0,.9,0,1.6c.1,.7,.1,1.2,.1,1.6m-7.4,-9.8q0,.2,-.1,.2c-.2,0,-1.2,0,-3,-.1c0,1.7,0,3.1,0,4.1c0,.6,0,1.6,0,2.8c.1,1.3,.1,2.2,.1,2.9c0,.1,-.1,.1,-.2,.1c-.1,0,-.3,0,-.5,0c-.2,0,-.3,0,-.4,0c-.1,0,-.3,0,-.5,0c-.2,0,-.4,0,-.5,0c-.1,0,-.2,0,-.2,-.2c0,-.6,.1,-1.5,.1,-2.8c.1,-1.2,.1,-2.2,.1,-2.8c0,-1,0,-2.3,-.1,-4.1c-1.4,.1,-2.4,.2,-3.1,.2c-.1,0,-.1,-.1,-.1,-.1c0,-.1,0,-.2,.1,-.4c0,-.3,.1,-.4,.1,-.5c0,-.2,0,-.4,.1,-.8c0,0,.1,-.1,.1,-.1h.1c2,.2,3.3,.2,3.9,.2c.5,0,1.4,0,2.7,-.1c.8,-.1,1.2,-.1,1,-.1c.2,0,.3,.1,.3,.2c0,-.1,0,.2,0,.8c0,0,0,.1,0,.3c0,.1,0,.3,0,.3Z" class="g4_1" />
<path d="M134.8,101.9c0,.2,0,.3,-.2,.3c-.2,0,-.6,0,-1.1,0c-.4,0,-.8,-.1,-1,-.1c-.2,0,-.2,-.1,-.2,-.3c0,-.3,0,-.9,0,-1.6c0,-.7,0,-1.3,0,-1.7c0,-.3,0,-.7,0,-1.3c0,-.6,0,-1,0,-1.3c0,-.8,-.1,-1.4,-.4,-1.8c-.3,-.4,-.8,-.6,-1.6,-.6c-.4,0,-.9,.2,-1.5,.6c-.7,.5,-1.1,.8,-1.1,1.2v6.6c0,.2,0,.3,-.2,.3c-.2,0,-.6,0,-1,0c-.5,0,-.8,-.1,-1.1,-.1c-.1,0,-.2,0,-.2,-.2c0,-.6,0,-1.5,0,-2.6c0,-1.2,0,-2.1,0,-2.6c0,-1.6,-.1,-3,-.5,-4.4c0,0,0,-.1,0,-.1c0,-.1,.1,-.1,.2,-.2c0,0,.4,0,1.2,-.2c.8,-.1,1.2,-.2,1.3,-.2c0,0,0,.1,0,.2c.1,.5,.2,.9,.3,1.4c.4,-.3,.9,-.7,1.5,-1.1c.8,-.5,1.5,-.7,2.2,-.7c1.4,0,2.4,.4,2.9,1.2c.4,.5,.5,1.5,.5,2.8c0,.2,0,.6,0,1.1c0,.4,0,.8,0,1c0,.5,0,1.2,0,2.2c0,1,0,1.7,0,2.2M121.6,96.4c0,-.8,-.2,-1.5,-.7,-2.1c-.5,-.6,-1.1,-.9,-1.9,-.9c-.8,0,-1.4,.3,-1.9,.9c-.5,.6,-.7,1.3,-.7,2.1c0,.8,.2,1.5,.7,2.1c.5,.6,1.1,.9,1.9,.9c.8,0,1.4,-.3,1.9,-.9c.5,-.6,.7,-1.3,.7,-2.1m2.6,-4.5c0,.9,0,2.2,0,4c0,1.7,0,3,0,3.9c0,1.8,-.4,3.1,-1.1,3.9c-.8,.9,-2.1,1.3,-3.8,1.3c-1.7,0,-3,-.3,-4,-.9c-.2,-.1,-.3,-.2,-.3,-.3c0,.1,.1,-.5,.4,-1.6q0,-.2,.1,-.2c0,0,.1,0,.1,0c1.1,.7,2.3,1,3.4,1c.7,0,1.3,-.2,1.8,-.5c.5,-.4,.8,-.9,.8,-1.6c0,-.2,0,-.5,0,-1c-.9,1,-1.9,1.5,-3.2,1.5c-1.3,0,-2.4,-.5,-3.3,-1.5c-.8,-1,-1.3,-2.1,-1.3,-3.5c0,-1.4,.4,-2.6,1.3,-3.5c.8,-1.1,1.9,-1.6,3.3,-1.6c1.2,0,2.2,.5,2.9,1.4c.1,.1,.2,.2,.2,.2q.1,0,.1,-.2c0,-.1,0,-.2,0,-.4c0,-.2,0,-.4,0,-.5c0,-.4,0,-.7,.1,-.7c.1,0,.5,.1,1.2,.2c.7,.2,1.1,.3,1.2,.3c.1,0,.1,.1,.1,.3M113.5,92c0,.5,-.1,1.4,-.1,2.5c-.1,1.2,-.1,2,-.1,2.6c0,.5,0,1.3,0,2.4c0,1.1,0,1.9,0,2.4q0,.2,-.2,.2H111c-.2,0,-.2,-.1,-.2,-.4c0,-.5,0,-1.3,0,-2.3c0,-1,0,-1.8,0,-2.3c0,-.6,0,-1.4,-.1,-2.6c-.1,-1.1,-.1,-2,-.1,-2.6c0,-.1,.1,-.2,.2,-.2c.1,0,.3,.1,.6,.1c.3,0,.5,.1,.6,.1c.2,0,.4,-.1,.7,-.1c.2,0,.5,-.1,.6,-.1c.1,0,.2,.1,.2,.3m.1,-3c0,.9,-.5,1.3,-1.6,1.3c-1,0,-1.5,-.4,-1.5,-1.3c0,-.4,.2,-.8,.5,-1c.3,-.3,.6,-.4,1,-.4c.5,0,.8,.1,1.1,.4c.3,.2,.5,.6,.5,1m-3.4,9.8c0,1.1,-.4,1.9,-1.3,2.6c-.8,.6,-1.7,.9,-2.9,.9c-.4,0,-.7,0,-.7,0c-.1,-.1,-.2,-.3,-.2,-.6c0,-.1,0,-.4,-.1,-.7c0,-.3,0,-.6,0,-.7c0,-.1,0,-.2,.2,-.2c.1,0,.2,0,.4,0c.2,0,.3,0,.3,0c1.4,0,2.1,-.4,2.1,-1.3c0,-.4,-.3,-.7,-.9,-1.1c-1,-.5,-1.6,-.8,-1.7,-1c-.6,-.5,-.9,-1.2,-.9,-2c0,-1.1,.4,-2,1.2,-2.6c.7,-.6,1.7,-.8,2.8,-.8c.1,0,.2,0,.3,.1c0,.1,.1,.4,.2,.9c.2,.5,.2,.8,.2,.9q0,.1,-.2,.2c-.4,0,-.9,.1,-1.4,.2c-.6,.1,-.8,.4,-.8,.9c0,.3,.3,.6,.9,1c.8,.5,1.4,.8,1.6,1.1c.6,.5,.9,1.3,.9,2.2M102,95.6c0,-.7,-.2,-1.2,-.7,-1.7c-.5,-.4,-1,-.7,-1.6,-.7c-.7,0,-1.3,.3,-1.8,.9c-.5,.5,-.8,1.1,-.8,1.8c0,.1,.1,.2,.4,.2c1.1,0,2.4,-.1,3.9,-.3c.4,-.1,.6,-.2,.6,-.2m2.7,.6c0,.6,-.3,.9,-.7,1.1c-.4,.1,-2.6,.4,-6.9,.7c.1,.6,.5,1.2,1.1,1.6c.6,.5,1.2,.7,1.9,.7c1.2,0,2.2,-.4,3.2,-1.1c.1,-.1,.2,-.2,.3,-.3q.1,0,.2,0c0,0,.1,.3,.4,.8c.2,.4,.4,.7,.4,.8c0,0,-.1,.1,-.2,.2c-1.1,1.2,-2.5,1.7,-4.2,1.7c-1.7,0,-3,-.5,-4,-1.5c-1.1,-1,-1.6,-2.4,-1.6,-4.1c0,-1.5,.5,-2.8,1.5,-3.9c1,-1.2,2.3,-1.8,3.7,-1.8c1.4,0,2.6,.5,3.5,1.5c.9,1,1.4,2.2,1.4,3.6M92,94.3c0,-1.6,-.5,-2.8,-1.4,-3.8c-.9,-1.1,-2.2,-1.6,-3.7,-1.6c-1.3,0,-1.9,0,-1.6,0c-.9,0,-1.3,.2,-1.3,.5c0,.5,0,1.4,0,2.5c-.1,1.1,-.1,2,-.1,2.5c0,.6,0,1.4,.1,2.5c0,1.2,0,2,0,2.6c0,.2,.5,.4,1.3,.4c-.1,0,.4,0,1.6,0c.9,0,1.6,-.1,2.1,-.2c.6,-.3,1.1,-.7,1.6,-1.3C91.5,97.3,92,96,92,94.3m2.7,0c0,2.1,-.6,3.9,-1.8,5.4c-1.2,1.6,-2.9,2.4,-4.9,2.4c-.4,0,-.9,0,-1.7,0c-.8,0,-1.3,0,-1.7,0c-.4,0,-.9,0,-1.6,0c-.7,0,-1.2,0,-1.5,0c-.2,0,-.3,0,-.3,-.2c0,-.8,0,-2,.1,-3.7c0,-1.6,.1,-2.8,.1,-3.6c0,-.8,-.1,-2.1,-.1,-3.8c-.1,-1.7,-.1,-3,-.1,-3.9c0,-.1,.1,-.2,.3,-.2c.2,0,.7,0,1.2,0c.5,0,.9,0,1.2,0c.3,0,.6,0,1.2,0c.5,0,.9,0,1.1,0c2.6,0,4.5,.5,5.7,1.4c.9,.7,1.6,1.7,2.1,2.8c.5,1.1,.7,2.2,.7,3.4Z" class="g0_1" />
<path fill-rule="evenodd" d="M108.8,44.3c-1.5,-.6,-4.3,.8,-6,1.5c.7,-1.7,2.2,-2.5,3.3,-2.8c1.1,-.3,2,-.4,2.7,-.2c.1,.5,0,1.1,0,1.5Z" class="g5_1" />
<path fill-rule="evenodd" d="M122.1,41.8c-.6,.8,-1.3,1.1,-2.1,1.2c-.5,-2.1,-1.6,-3.5,-3.7,-4.7c2,-.3,3.7,.6,4.9,1.4c1.2,.9,1.2,1.5,.9,2.1Z" class="g5_1" />
<path fill-rule="evenodd" d="M128.5,73.8c-1.3,.3,-3.1,1.7,-4.5,2.2c2.7,1.8,6.2,2.8,7.9,2.9c3.2,.1,6.7,-2.2,6.6,-7.5c-.1,-5.3,-.4,-3.4,-2.1,-3.1c4.4,-3.6,5.3,-6.5,5.1,-9.2c-1.3,2.8,-4.6,7.1,-7.9,7.9c1,.9,1.5,1.8,1.4,2.9c-.1,1.3,-.6,2.8,-2.2,3.4c-1.6,.6,-2.9,.1,-4.3,.5Z" class="g5_1" />
<path fill-rule="evenodd" d="M127.1,73.7c-1.4,.5,-2.9,.8,-4.2,1.3c-.2,-2.4,-2.2,-6.7,-3.8,-10.2c1.2,1.6,3,4.9,4.6,7.2c.3,.5,1.1,.6,1.5,.3c.8,-.5,1.5,-1.7,1.9,-2.8c.3,.9,.4,2.8,0,4.2Z" class="g5_1" />
<path fill-rule="evenodd" d="M133.8,52.3c-.7,.8,-1.3,1.6,-2,1.5c-.7,0,-1.2,-1.2,-1,-2.2c.3,-1.7,1.8,-2.4,2.2,-4.1c.4,-1.4,.1,-3.1,-.4,-4.7c1.5,1.7,2,4.9,1.8,7.3c-.1,.6,-.7,1.3,-1.1,1.7c.2,.2,.4,.4,.5,.5Z" class="g5_1" />
<path fill-rule="evenodd" d="M136.4,68.3c7.8,-2.1,10.5,-13.9,-1.6,-17.4c9.6,5.8,7.8,12.5,1.6,17.4Z" class="g6_1" />
<path fill-rule="evenodd" d="M133.6,52.5C141.3,44.3,128.9,33,122.1,41.8c5,-4.5,15.9,-.6,11.5,10.7Z" class="g7_1" />
<path fill-rule="evenodd" d="M122.9,41c-.5,-5.4,-12.4,-7.8,-13.7,4.2c3.8,-9.3,9.6,-7.7,13.7,-4.2Z" class="g8_1" />
<path fill-rule="evenodd" d="M123.8,75.8c11,12.6,20,-.5,14.4,-8.2c2.1,10.8,-5,14.2,-14.4,8.2Z" class="g1_1" />
<path fill-rule="evenodd" d="M109.3,42.9c-3.2,-4,-14.6,2.3,-5.8,11.3c-3.7,-8.5,1.1,-12.3,5.8,-11.3Z" class="g9_1" />
<path fill-rule="evenodd" d="M128.3,73.8c-1.6,1.1,-4.9,2.3,-6.5,3.4C119.1,66.1,114.1,56.8,102,56.3c.3,-.7,1.3,-2.3,1.8,-2.9c.5,-.7,1.1,-1,1.8,-1.2c-.5,.4,-1,1.3,-1.3,1.8c-.4,.5,-.6,1.1,-1,1.8c10.1,.7,16.2,7.4,19.5,19.7c2,-1.1,4.1,-1.5,5.5,-1.7Z" class="g9_1" />
<path d="M104.7,162.7c.1,.1,.3,.3,.5,.4c.2,.1,.4,.2,.7,.2c.3,.1,.6,.1,.9,.1c.3,0,.6,0,.8,-.1c.3,0,.5,-.1,.7,-.2c.2,-.1,.4,-.3,.5,-.4c.1,-.2,.2,-.4,.2,-.6c0,-.2,-.1,-.3,-.2,-.5c-.1,-.2,-.3,-.3,-.5,-.4c-.2,-.2,-.4,-.2,-.7,-.3c-.2,-.1,-.5,-.1,-.8,-.1c-.3,0,-.6,0,-.9,.1c-.3,.1,-.5,.1,-.7,.3c-.2,.1,-.4,.2,-.5,.4c-.1,.1,-.1,.3,-.1,.5c0,.2,0,.4,.1,.6m.8,1.3c-.4,-.1,-.7,-.2,-1,-.4c-.2,-.2,-.4,-.4,-.6,-.7c-.1,-.2,-.2,-.5,-.2,-.8c0,-.3,.1,-.5,.2,-.8c.2,-.2,.4,-.4,.6,-.6c.3,-.2,.6,-.4,1,-.5c.4,-.1,.8,-.1,1.3,-.1c.4,0,.9,0,1.2,.1c.4,.1,.7,.3,1,.5c.3,.1,.5,.4,.6,.6c.1,.3,.2,.5,.2,.8c0,.3,-.1,.6,-.2,.8c-.1,.3,-.3,.5,-.6,.7c-.3,.2,-.6,.3,-1,.4c-.3,.1,-.8,.1,-1.2,.1c-.5,0,-.9,0,-1.3,-.1m1.7,3.9c0,.1,0,.3,0,.5c0,.1,0,.3,0,.4h-.8c0,-.1,0,-.3,0,-.4c0,-.2,0,-.4,0,-.5v-2.2h-2.1c-.2,0,-.5,0,-.7,.1c-.2,0,-.5,0,-.7,0V165c.2,0,.5,0,.7,0c.2,0,.5,0,.7,0h4.9c.3,0,.5,0,.8,0c.2,0,.4,0,.7,0v.8c-.3,0,-.5,0,-.7,0c-.3,-.1,-.5,-.1,-.8,-.1h-2Z" class="g0_1" />
<path d="M118.3,168.2c0,.2,0,.4,0,.6h-.9c.1,-.2,.1,-.4,.1,-.6c0,-.2,0,-.5,0,-.7v-6.2c0,-.2,0,-.4,0,-.6c0,-.3,0,-.5,-.1,-.7h.9c0,.2,0,.4,0,.7c0,.2,0,.4,0,.6v6.2c0,.2,0,.5,0,.7m-5.5,-7c-.2,0,-.3,0,-.4,0c-.2,0,-.3,0,-.4,0v-.8c.1,.1,.2,.1,.4,.1c.1,0,.2,0,.4,0h3c0,.1,0,.3,0,.4c0,.1,0,.3,0,.4v2.6h-3.1V166h1.4c.3,0,.6,0,.8,-.1c.3,0,.6,0,.9,0c.3,-.1,.5,-.1,.8,-.1c.2,-.1,.4,-.1,.5,-.1v.7c-.1,0,-.3,.1,-.5,.1c-.3,0,-.5,.1,-.8,.1c-.3,0,-.5,0,-.8,.1c-.3,0,-.6,0,-.9,0c-.2,0,-.4,0,-.6,0c-.3,0,-.5,0,-.7,0H112v-3.5h3v-2Z" class="g0_1" />
<path d="M121.5,162.3c.1,.2,.2,.3,.4,.4c.2,.1,.4,.2,.7,.2c.3,.1,.5,.1,.8,.1c.4,0,.6,0,.9,-.1c.3,0,.5,-.1,.7,-.2c.2,-.1,.3,-.2,.4,-.4c.1,-.1,.2,-.3,.2,-.5c0,-.1,-.1,-.3,-.2,-.5c-.1,-.1,-.2,-.2,-.4,-.3c-.2,-.2,-.4,-.2,-.7,-.3c-.3,-.1,-.5,-.1,-.9,-.1c-.3,0,-.6,0,-.8,.1c-.3,.1,-.5,.1,-.7,.3c-.2,.1,-.3,.2,-.4,.3c-.1,.2,-.2,.4,-.2,.5c0,.2,.1,.4,.2,.5m-.9,4.5c0,-.1,0,-.2,0,-.4c0,-.1,0,-.2,0,-.4h.8c0,.2,0,.3,0,.4c0,.1,0,.3,0,.4v1.1h3.8c.3,0,.5,0,.7,0c.2,0,.5,0,.7,0v.8c-.2,0,-.5,0,-.7,0c-.2,0,-.4,0,-.7,0h-4.6Zm.1,-5.7c.1,-.2,.3,-.4,.6,-.6c.2,-.2,.5,-.3,.9,-.4c.4,-.1,.8,-.2,1.2,-.2c.5,0,.9,.1,1.3,.2c.4,.1,.7,.2,1,.4c.2,.2,.4,.4,.5,.6c.2,.2,.2,.5,.2,.7c0,.6,-.2,1,-.7,1.4c-.6,.3,-1.3,.5,-2.3,.5c-.4,0,-.8,0,-1.2,-.1c-.4,-.1,-.7,-.3,-.9,-.4c-.3,-.2,-.5,-.4,-.6,-.6c-.2,-.2,-.2,-.5,-.2,-.8c0,-.2,0,-.5,.2,-.7m.3,4.2c-.3,0,-.5,0,-.7,0c-.3,0,-.5,0,-.7,0v-.8c.2,.1,.4,.1,.7,.1c.2,0,.4,0,.7,0h4.9c.3,0,.5,0,.8,0c.2,0,.4,0,.7,-.1v.8c-.3,0,-.5,0,-.7,0c-.3,0,-.5,0,-.8,0Z" class="g0_1" />
<path d="M134.5,162.4v-1.2c0,-.2,0,-.4,0,-.6c0,-.2,0,-.4,0,-.6h.8c0,.2,0,.4,0,.6c0,.2,0,.4,0,.6v3.3c0,.2,0,.4,0,.6c0,.2,0,.4,0,.6h-.8c0,-.2,0,-.4,0,-.6c0,-.2,0,-.4,0,-.6v-1.3h-1v1.6c0,.2,0,.4,0,.6h-.8c0,-.2,0,-.4,0,-.6c0,-.1,0,-.3,0,-.5v-3c0,-.2,0,-.4,0,-.6c0,-.2,0,-.4,0,-.6h.8c0,.2,0,.4,0,.6v1.7Zm-1.4,5.9c.3,-.1,.5,-.1,.7,-.2c.2,-.1,.4,-.2,.5,-.3c.1,-.1,.2,-.3,.2,-.4c0,-.2,-.1,-.3,-.2,-.5c-.1,-.1,-.3,-.2,-.5,-.3c-.2,0,-.4,-.1,-.6,-.1c-.3,-.1,-.6,-.1,-.9,-.1c-.3,0,-.6,0,-.8,.1c-.3,0,-.5,.1,-.7,.1c-.2,.1,-.4,.2,-.5,.3c-.1,.2,-.1,.3,-.1,.5c0,.1,0,.3,.1,.4c.1,.1,.3,.2,.5,.3c.2,.1,.4,.1,.7,.2c.2,0,.5,0,.8,0c.3,0,.6,0,.8,0m-2,.6c-.4,-.1,-.7,-.2,-1,-.4c-.2,-.1,-.4,-.3,-.6,-.5c-.1,-.2,-.2,-.4,-.2,-.6c0,-.3,.1,-.5,.2,-.7c.2,-.2,.4,-.4,.6,-.5c.3,-.1,.6,-.3,1,-.3c.4,-.1,.8,-.1,1.2,-.1c.9,0,1.7,.1,2.2,.4c.6,.3,.8,.7,.8,1.2c0,.2,0,.5,-.2,.7c-.1,.2,-.3,.3,-.6,.5c-.3,.1,-.6,.2,-1,.3c-.3,.1,-.7,.1,-1.2,.1c-.4,0,-.9,0,-1.2,-.1m-1.4,-8.1h-.3c0,0,-.1,0,-.1,0q-.1,0,-.2,0v-.7c.1,0,.2,0,.3,0h1.5c.1,0,.2,0,.3,0v.7c-.1,0,-.2,0,-.3,0c-.1,0,-.2,0,-.3,0Zm1.3,3.7c.1,-.2,.2,-.4,.2,-.7c0,-.2,-.1,-.4,-.2,-.5c-.2,-.2,-.5,-.3,-.8,-.3c-.3,0,-.6,.1,-.8,.3c-.2,.1,-.3,.3,-.3,.5c0,.3,.1,.5,.3,.7c.2,.1,.5,.2,.8,.2c.3,0,.6,-.1,.8,-.2m-2.1,.4c-.4,-.3,-.5,-.6,-.5,-1.1c0,-.4,.1,-.7,.5,-1c.3,-.3,.7,-.4,1.3,-.4c.5,0,1,.1,1.3,.4c.3,.3,.5,.6,.5,1c0,.5,-.2,.8,-.5,1.1c-.3,.2,-.8,.4,-1.3,.4c-.6,0,-1,-.2,-1.3,-.4m0,-2.9c-.2,0,-.3,0,-.4,0c-.1,0,-.2,0,-.3,.1v-.8c.1,.1,.2,.1,.3,.1c.1,0,.2,0,.4,0h2.6c.1,0,.2,0,.3,0c.1,0,.3,0,.4,-.1v.8c-.1,-.1,-.3,-.1,-.4,-.1c-.1,0,-.2,0,-.3,0Z" class="g0_1" />
<path d="M52.7,181.3h-.9v-6.7c-.2,.2,-.5,.5,-.8,.7c-.3,.2,-.6,.3,-.9,.4v-.8c.3,-.1,.6,-.2,.9,-.5c.3,-.2,.5,-.5,.7,-.9h1Z" class="g0_1" />
<path d="M58.9,179.2v-3.6c0,-.5,-.1,-.8,-.4,-1.1c-.2,-.3,-.6,-.4,-1,-.4c-.5,0,-.8,.1,-1.1,.4c-.3,.3,-.4,.6,-.4,1.1v3.6c0,.4,.1,.8,.4,1.1c.3,.3,.6,.4,1.1,.4c.4,0,.8,-.1,1,-.4c.3,-.3,.4,-.7,.4,-1.1m.8,0c0,.3,0,.6,-.2,.9c-.1,.3,-.2,.5,-.4,.7c-.2,.2,-.5,.3,-.8,.4c-.2,.1,-.5,.2,-.8,.2c-.4,0,-.7,-.1,-.9,-.2c-.3,-.1,-.5,-.3,-.7,-.4c-.3,-.2,-.4,-.5,-.5,-.7c-.2,-.3,-.2,-.6,-.2,-.9v-3.6c0,-.3,.1,-.6,.2,-.9c.1,-.2,.3,-.5,.5,-.7c.2,-.2,.4,-.3,.7,-.4c.3,-.1,.6,-.2,.9,-.2c.3,0,.6,.1,.8,.2c.3,.1,.5,.2,.8,.4c.2,.2,.3,.5,.4,.7c.2,.3,.2,.6,.2,.9Z" class="g0_1" />
<path d="M64.7,179.2v-3.6c0,-.5,-.2,-.8,-.4,-1.1c-.3,-.3,-.7,-.4,-1.1,-.4c-.5,0,-.8,.1,-1.1,.4c-.2,.3,-.4,.6,-.4,1.1v3.6c0,.4,.2,.8,.4,1.1c.3,.3,.6,.4,1.1,.4c.4,0,.8,-.1,1.1,-.4c.2,-.3,.4,-.7,.4,-1.1m.8,0c0,.3,-.1,.6,-.2,.9c-.1,.3,-.3,.5,-.5,.7c-.2,.2,-.4,.3,-.7,.4c-.3,.1,-.6,.2,-.9,.2c-.3,0,-.6,-.1,-.9,-.2c-.3,-.1,-.5,-.3,-.7,-.4c-.2,-.2,-.4,-.5,-.5,-.7c-.1,-.3,-.2,-.6,-.2,-.9v-3.6c0,-.3,.1,-.6,.2,-.9c.1,-.2,.3,-.5,.5,-.7c.2,-.2,.4,-.3,.7,-.4c.3,-.1,.6,-.2,.9,-.2c.3,0,.6,.1,.9,.2c.2,.1,.5,.2,.7,.4c.2,.2,.4,.5,.5,.7c.1,.3,.2,.6,.2,.9Z" class="g0_1" />
<path d="M71.3,178.8c0,.8,-.2,1.5,-.7,1.9c-.4,.4,-.9,.6,-1.6,.6c-.4,0,-.6,0,-.9,-.1c-.3,-.1,-.5,-.2,-.7,-.4c-.2,-.2,-.4,-.4,-.5,-.6c-.1,-.2,-.2,-.4,-.2,-.7h.9c0,.2,0,.3,.1,.4c0,.2,.1,.3,.2,.4c.2,.1,.3,.2,.5,.3c.1,0,.3,.1,.6,.1c.5,0,.9,-.2,1.1,-.5c.2,-.4,.3,-.8,.3,-1.5c0,-.5,-.1,-1,-.3,-1.3c-.2,-.3,-.6,-.5,-1.1,-.5c-.4,0,-.6,.1,-.9,.2c-.2,.2,-.4,.3,-.5,.5h-.7l.2,-4.1H71v.7H67.9l-.2,2.6c.2,-.2,.4,-.3,.7,-.4c.2,-.1,.5,-.2,.8,-.2c.3,0,.5,.1,.8,.2c.2,.1,.4,.3,.6,.5c.2,.2,.4,.5,.5,.8c.1,.3,.2,.7,.2,1.1Z" class="g0_1" />
<path d="M72.6,177h4.6v.7H72.6V177Z" class="g0_1" />
<path d="M81.9,181.3H81v-6.7c-.2,.2,-.5,.5,-.8,.7c-.3,.2,-.7,.3,-.9,.4v-.8c.3,-.1,.6,-.2,.9,-.5c.3,-.2,.5,-.5,.7,-.9h1Z" class="g0_1" />
<path d="M88.1,179.2v-3.6c0,-.5,-.1,-.8,-.4,-1.1c-.3,-.3,-.6,-.4,-1.1,-.4c-.4,0,-.8,.1,-1,.4c-.3,.3,-.4,.6,-.4,1.1v3.6c0,.4,.1,.8,.4,1.1c.2,.3,.6,.4,1,.4c.5,0,.8,-.1,1.1,-.4c.3,-.3,.4,-.7,.4,-1.1m.8,0c0,.3,-.1,.6,-.2,.9c-.1,.3,-.3,.5,-.5,.7c-.2,.2,-.4,.3,-.7,.4c-.2,.1,-.5,.2,-.9,.2c-.3,0,-.6,-.1,-.8,-.2c-.3,-.1,-.6,-.3,-.8,-.4c-.2,-.2,-.3,-.5,-.4,-.7c-.2,-.3,-.2,-.6,-.2,-.9v-3.6c0,-.3,0,-.6,.2,-.9c.1,-.2,.2,-.5,.4,-.7c.2,-.2,.5,-.3,.8,-.4c.2,-.1,.5,-.2,.8,-.2c.4,0,.6,.1,.9,.2c.3,.1,.5,.2,.7,.4c.2,.2,.4,.5,.5,.7c.1,.3,.2,.6,.2,.9Z" class="g0_1" />
<path d="M94.7,179.2c0,.3,0,.6,-.1,.9c-.2,.2,-.3,.5,-.5,.7c-.2,.1,-.5,.3,-.8,.4c-.3,.1,-.6,.1,-.9,.1c-.4,0,-.7,0,-1,-.1c-.3,-.1,-.6,-.2,-.8,-.4c-.2,-.2,-.4,-.4,-.5,-.7c-.1,-.2,-.1,-.5,-.1,-.8h.8c0,.2,0,.3,.1,.5c0,.2,.1,.3,.3,.4c.1,.2,.3,.3,.5,.4c.2,.1,.4,.1,.7,.1c.4,0,.8,-.1,1.1,-.4c.2,-.3,.4,-.7,.4,-1.2c0,-.4,-.2,-.8,-.4,-1.1c-.3,-.3,-.7,-.4,-1.2,-.4H92v-.7h.3c.4,0,.8,-.1,1,-.4c.3,-.2,.5,-.6,.5,-1c0,-.4,-.2,-.8,-.4,-1.1c-.3,-.2,-.6,-.3,-1,-.3c-.3,0,-.5,0,-.7,.1c-.1,.1,-.3,.2,-.4,.3c-.1,.1,-.2,.3,-.3,.4c0,.2,-.1,.3,-.1,.5h-.8c0,-.3,0,-.5,.1,-.8c.2,-.2,.3,-.4,.5,-.6c.2,-.2,.5,-.3,.7,-.4c.3,-.1,.6,-.2,.9,-.2c.4,0,.7,.1,.9,.2c.3,.1,.6,.2,.8,.4c.2,.2,.3,.4,.4,.6c.1,.3,.2,.6,.2,.9c0,.3,-.1,.7,-.3,1c-.2,.3,-.5,.6,-.9,.8c.4,.1,.8,.4,1,.7c.2,.4,.3,.8,.3,1.2Z" class="g0_1" />
<path d="M96.1,177h4.6v.7H96.1V177Z" class="g0_1" />
<path d="M106.7,181.3h-4.6c0,-.2,.1,-.4,.1,-.6c.1,-.2,.2,-.4,.3,-.6c.1,-.2,.2,-.3,.3,-.5c.2,-.2,.3,-.4,.4,-.5l2,-2.3c.2,-.2,.4,-.4,.5,-.6c.1,-.2,.1,-.5,.1,-.7c0,-.4,-.1,-.7,-.3,-1c-.3,-.3,-.6,-.4,-1.1,-.4c-.2,0,-.4,0,-.6,.1c-.2,.1,-.3,.2,-.5,.3c-.1,.2,-.2,.3,-.2,.5c-.1,.2,-.1,.3,-.1,.5h-.9c0,-.3,.1,-.5,.2,-.8c.1,-.2,.3,-.4,.5,-.6c.2,-.2,.4,-.4,.7,-.5c.2,-.1,.6,-.2,.9,-.2c.3,0,.6,.1,.9,.2c.3,.1,.5,.2,.7,.4c.2,.2,.4,.4,.5,.7c.1,.2,.2,.5,.2,.8c0,.2,-.1,.3,-.1,.5c-.1,.2,-.1,.3,-.2,.5c-.1,.1,-.2,.3,-.3,.4c-.1,.2,-.2,.3,-.3,.4l-1.9,2.1c-.1,.2,-.3,.4,-.4,.6c-.2,.2,-.3,.4,-.3,.6h3.5Z" class="g0_1" />
<path d="M111.6,179.2v-3.6c0,-.5,-.2,-.8,-.4,-1.1c-.3,-.3,-.7,-.4,-1.1,-.4c-.5,0,-.8,.1,-1.1,.4c-.2,.3,-.4,.6,-.4,1.1v3.6c0,.4,.2,.8,.4,1.1c.3,.3,.6,.4,1.1,.4c.4,0,.8,-.1,1.1,-.4c.2,-.3,.4,-.7,.4,-1.1m.8,0c0,.3,-.1,.6,-.2,.9c-.1,.3,-.3,.5,-.5,.7c-.2,.2,-.4,.3,-.7,.4c-.3,.1,-.6,.2,-.9,.2c-.3,0,-.6,-.1,-.9,-.2c-.3,-.1,-.5,-.3,-.7,-.4c-.2,-.2,-.4,-.5,-.5,-.7c-.1,-.3,-.2,-.6,-.2,-.9v-3.6c0,-.3,.1,-.6,.2,-.9c.1,-.2,.3,-.5,.5,-.7c.2,-.2,.4,-.3,.7,-.4c.3,-.1,.6,-.2,.9,-.2c.3,0,.6,.1,.9,.2c.2,.1,.5,.2,.7,.4c.2,.2,.4,.5,.5,.7c.1,.3,.2,.6,.2,.9Z" class="g0_1" />
<path d="M117.3,175.5c0,-.4,-.1,-.7,-.4,-1c-.3,-.3,-.6,-.4,-1.1,-.4c-.4,0,-.8,.1,-1,.4c-.3,.3,-.4,.6,-.4,1c0,.5,.1,.8,.4,1.1c.3,.2,.6,.4,1,.4c.5,0,.8,-.2,1.1,-.4c.3,-.3,.4,-.7,.4,-1.1m.1,3.6c0,-.2,0,-.4,-.1,-.6c-.1,-.2,-.2,-.3,-.3,-.5c-.2,-.1,-.3,-.2,-.5,-.3c-.2,-.1,-.4,-.1,-.7,-.1c-.2,0,-.4,0,-.6,.1c-.2,.1,-.4,.2,-.5,.3c-.2,.2,-.3,.3,-.3,.5c-.1,.2,-.2,.4,-.2,.6c0,.3,.1,.5,.2,.6c0,.2,.2,.4,.3,.5c.1,.2,.3,.3,.5,.4c.2,.1,.4,.1,.6,.1c.3,0,.5,0,.7,-.1c.2,-.1,.3,-.2,.5,-.4c.1,-.1,.2,-.3,.3,-.5c.1,-.1,.1,-.3,.1,-.6m.8,.1c0,.3,0,.6,-.1,.9c-.2,.2,-.3,.5,-.5,.6c-.3,.2,-.5,.4,-.8,.5c-.3,.1,-.6,.1,-1,.1c-.3,0,-.6,0,-.9,-.1c-.3,-.1,-.6,-.3,-.8,-.5c-.2,-.1,-.4,-.4,-.5,-.6c-.1,-.3,-.2,-.6,-.2,-.9c0,-.4,.1,-.7,.3,-1.1c.2,-.3,.5,-.6,1,-.8c-.4,-.2,-.7,-.5,-.9,-.8c-.2,-.3,-.3,-.7,-.3,-1c0,-.3,.1,-.6,.2,-.8c.1,-.3,.3,-.5,.5,-.7c.2,-.2,.5,-.3,.7,-.4c.3,-.1,.6,-.2,.9,-.2c.4,0,.7,.1,1,.2c.2,.1,.5,.2,.7,.4c.2,.2,.3,.4,.4,.7c.2,.2,.2,.5,.2,.8c0,.3,-.1,.7,-.3,1c-.2,.4,-.5,.6,-.9,.8c.4,.1,.8,.4,1,.7c.2,.4,.3,.7,.3,1.2Z" class="g0_1" />
<path d="M120.1,175.9c0,.5,.1,.9,.4,1.2c.2,.4,.6,.5,1.1,.5c.5,0,.9,-.1,1.1,-.5c.3,-.3,.4,-.7,.4,-1.2c0,-.5,-.1,-1,-.3,-1.3c-.3,-.3,-.7,-.5,-1.2,-.5c-.5,0,-.9,.2,-1.1,.5c-.3,.3,-.4,.8,-.4,1.3m-.8,0c0,-.4,.1,-.7,.2,-1c.1,-.3,.3,-.6,.5,-.8c.2,-.2,.4,-.4,.7,-.5c.3,-.1,.6,-.1,.9,-.1c.4,0,.7,0,1,.1c.2,.1,.5,.3,.7,.5c.2,.2,.3,.5,.4,.8c.2,.2,.2,.6,.2,.9c0,.3,0,.7,-.2,1.1c-.1,.5,-.3,.9,-.5,1.2c-.2,.6,-.6,1.2,-.9,1.7c-.3,.6,-.6,1,-1,1.5h-.9c.2,-.3,.4,-.5,.6,-.8c.2,-.3,.4,-.6,.6,-.9c.1,-.3,.3,-.6,.5,-.8c.1,-.3,.3,-.6,.4,-.8c-.2,.1,-.4,.2,-.6,.2c-.2,0,-.4,0,-.7,0c-.2,0,-.5,0,-.7,-.2c-.2,-.1,-.4,-.2,-.6,-.4c-.2,-.3,-.3,-.5,-.4,-.8c-.1,-.3,-.2,-.6,-.2,-.9Z" class="g0_1" />
<path d="M129.7,179.2c0,.3,-.1,.6,-.2,.9c-.1,.2,-.3,.5,-.5,.7c-.2,.1,-.5,.3,-.8,.4c-.2,.1,-.6,.1,-.9,.1c-.4,0,-.7,0,-1,-.1c-.3,-.1,-.6,-.2,-.8,-.4c-.2,-.2,-.3,-.4,-.4,-.7c-.2,-.2,-.2,-.5,-.2,-.8h.8c0,.2,.1,.3,.1,.5c.1,.2,.2,.3,.3,.4c.1,.2,.3,.3,.5,.4c.2,.1,.4,.1,.7,.1c.5,0,.8,-.1,1.1,-.4c.3,-.3,.4,-.7,.4,-1.2c0,-.4,-.1,-.8,-.4,-1.1c-.3,-.3,-.7,-.4,-1.2,-.4h-.3v-.7h.3c.5,0,.8,-.1,1.1,-.4c.2,-.2,.4,-.6,.4,-1c0,-.4,-.1,-.8,-.4,-1.1c-.2,-.2,-.6,-.3,-1,-.3c-.3,0,-.5,0,-.6,.1c-.2,.1,-.4,.2,-.5,.3c-.1,.1,-.2,.3,-.2,.4c-.1,.2,-.1,.3,-.1,.5H125c0,-.3,0,-.5,.2,-.8c.1,-.2,.2,-.4,.4,-.6c.2,-.2,.5,-.3,.8,-.4c.2,-.1,.5,-.2,.9,-.2c.3,0,.6,.1,.9,.2c.2,.1,.5,.2,.7,.4c.2,.2,.3,.4,.4,.6c.2,.3,.2,.6,.2,.9c0,.3,-.1,.7,-.3,1c-.2,.3,-.5,.6,-.9,.8c.5,.1,.8,.4,1,.7c.2,.4,.4,.8,.4,1.2Z" class="g0_1" />
<path d="M135.6,180h-1v1.3h-.8V180h-3.3v-.9l3.2,-5.6h.9l-3.4,5.9h2.6v-3h.8v3h1Z" class="g0_1" />
<path d="M100.3,189.2c0,-.1,0,-.2,.1,-.3c0,-.1,0,-.2,0,-.3c0,-.1,0,-.2,.1,-.4c-.4,.1,-.9,.1,-1.5,.1c-.5,0,-1.1,0,-1.6,0c-.5,.1,-1,.1,-1.3,.1h-.7v-.7c.1,0,.3,0,.7,0c.3,0,.8,0,1.3,0c.5,0,1.1,0,1.7,-.1c.5,0,1,0,1.5,0c0,-.1,0,-.2,0,-.3q0,-.1,0,-.2c0,-.1,0,-.2,0,-.3q0,-.1,0,-.2h-4c-.2,0,-.4,0,-.5,0c-.2,0,-.4,0,-.6,0v-.7c.2,0,.4,0,.6,0c.1,0,.3,0,.5,0h4.9c-.1,.6,-.1,1.2,-.2,1.9c-.1,.6,-.2,1.2,-.3,1.7c.2,0,.5,0,.7,0c.2,0,.4,0,.6,0v.8c-.2,0,-.4,-.1,-.7,-.1c-.2,0,-.5,0,-.7,0H98.7v1.3h2.6c0,.1,0,.2,0,.4c0,.1,0,.2,0,.3v1.4c0,.2,0,.3,0,.5c0,.2,0,.3,0,.5h-.8c0,-.2,0,-.3,0,-.5c0,-.2,0,-.3,0,-.5v-1.4h-4c-.2,0,-.4,0,-.5,0c-.2,0,-.4,0,-.6,0v-.7c.2,0,.4,0,.6,0h1.9v-1.3H96c-.3,0,-.5,0,-.8,0c-.2,0,-.4,.1,-.7,.1v-.8c.3,0,.5,0,.7,0c.3,0,.5,0,.8,0h4.2c.1,-.1,.1,-.2,.1,-.3Z" class="g0_1" />
<path d="M107.5,189.3c-.1,0,-.3,0,-.4,0c-.1,0,-.2,0,-.3,.1v-.8c.1,0,.2,0,.3,0c.1,0,.3,0,.4,0h1.6V187c0,-.2,0,-.4,0,-.7c0,-.2,0,-.4,0,-.6h.8c0,.2,0,.4,0,.6c0,.3,0,.5,0,.7v6.2c0,.2,0,.4,0,.6c0,.3,0,.5,0,.7h-.8c0,-.2,0,-.4,0,-.7c0,-.2,0,-.4,0,-.6v-3.9Zm-3.9,-2.6c0,-.1,0,-.3,0,-.5h3.5c.1,0,.2,0,.4,0v.8c-.1,0,-.2,0,-.2,-.1c-.1,0,-.2,0,-.2,0h-2.7v4.6h.9c.3,0,.6,0,1,0c.3,0,.6,-.1,.9,-.1c.3,0,.5,-.1,.8,-.1c.2,0,.3,-.1,.4,-.1v.7c-.1,.1,-.3,.1,-.6,.1c-.2,.1,-.5,.1,-.8,.1c-.3,.1,-.6,.1,-.9,.1c-.3,.1,-.6,.1,-.9,.1h-1.6v-5c0,-.2,0,-.4,0,-.6Z" class="g0_1" />
<path d="M118.2,193.9c.1,.2,.1,.4,.1,.6h-.9c0,-.2,.1,-.4,.1,-.6c0,-.3,0,-.5,0,-.7V187c0,-.2,0,-.4,0,-.7c0,-.2,-.1,-.4,-.1,-.6h.9c0,.2,0,.4,-.1,.6c0,.3,0,.5,0,.7v6.2c0,.2,0,.4,0,.7M112,186.7c-.1,-.1,-.1,-.3,-.1,-.5h3.6c.1,0,.3,0,.4,0v.8c0,0,-.1,0,-.2,0q-.1,0,-.2,-.1h-2.7v4.7l1.1,-.1c.3,0,.6,0,.9,0c.4,0,.7,-.1,1,-.1c.3,0,.6,-.1,.8,-.1c.2,0,.4,-.1,.5,-.1v.7c-.2,.1,-.4,.1,-.6,.1c-.3,.1,-.6,.1,-.9,.1c-.3,.1,-.6,.1,-.9,.1c-.4,.1,-.7,.1,-1,.1H112v-5c0,-.2,0,-.4,0,-.6Z" class="g0_1" />
<path d="M126.9,189.1c.1,0,.2,0,.3,0c.2,0,.3,0,.4,-.1v.9c-.1,0,-.2,-.1,-.4,-.1c-.1,0,-.2,0,-.3,0h-.6v3.4c0,.2,0,.4,0,.7c0,.2,.1,.4,.1,.6h-.9c0,-.2,0,-.4,0,-.6c0,-.3,0,-.5,0,-.7V187c0,-.2,0,-.4,0,-.7c0,-.2,0,-.4,0,-.6h.9c0,.2,-.1,.4,-.1,.6c0,.3,0,.5,0,.7v2.1Zm-6.1,-2.2c-.2,0,-.3,0,-.4,0c-.1,0,-.3,0,-.4,.1v-.8c.1,0,.3,0,.4,0c.1,0,.2,0,.4,0h3c.1,0,.2,0,.3,0c.1,0,.3,0,.4,0v.8c-.1,-.1,-.3,-.1,-.4,-.1c-.1,0,-.2,0,-.3,0h-1.2v.9c0,.4,.1,.8,.2,1.2c.1,.4,.2,.8,.4,1.1c.2,.4,.4,.7,.7,1c.3,.3,.7,.6,1.1,.9c-.1,0,-.2,.1,-.3,.3c-.1,.1,-.2,.2,-.3,.2c-.2,-.1,-.4,-.3,-.6,-.4c-.2,-.2,-.4,-.4,-.6,-.6c-.2,-.3,-.4,-.5,-.6,-.8c-.1,-.3,-.3,-.6,-.4,-.9c0,.3,-.2,.6,-.3,.9c-.2,.2,-.3,.5,-.5,.8c-.2,.2,-.4,.5,-.6,.7c-.3,.2,-.5,.4,-.7,.6c-.1,-.1,-.2,-.2,-.3,-.3c-.2,-.1,-.3,-.2,-.4,-.3c.4,-.2,.7,-.5,1,-.8c.3,-.3,.6,-.7,.8,-1.1c.2,-.4,.4,-.8,.5,-1.2c.1,-.5,.1,-1,.1,-1.5v-.7Z" class="g0_1" />
<path d="M135,191.7c0,.1,0,.3,.1,.5h-.9c0,-.2,0,-.4,0,-.5c0,-.2,0,-.4,0,-.5v-4.5c0,-.2,0,-.4,0,-.5c0,-.2,0,-.4,0,-.5h.9c-.1,.1,-.1,.3,-.1,.5c0,.1,0,.3,0,.5v4.5c0,.1,0,.3,0,.5m-5.5,.5c0,-.2,0,-.3,0,-.4c0,-.2,0,-.3,-.1,-.4h.9c0,.1,0,.2,0,.4c0,.1,0,.2,0,.3v1.5h3.6c.2,0,.4,0,.7,0c.2,0,.4,0,.7,0v.8c-.3,-.1,-.5,-.1,-.7,-.1c-.3,0,-.5,0,-.7,0h-4.4Zm-.1,-3c.3,.4,.6,.5,1.1,.5c.4,0,.7,-.1,1,-.5c.2,-.3,.4,-.6,.4,-1.1c0,-.4,-.2,-.8,-.4,-1.1c-.3,-.3,-.6,-.5,-1,-.5c-.5,0,-.8,.2,-1.1,.5c-.2,.3,-.4,.7,-.4,1.1c0,.5,.2,.8,.4,1.1m-1,-2c.1,-.3,.3,-.5,.4,-.7c.2,-.2,.5,-.4,.8,-.5c.2,-.2,.5,-.2,.9,-.2c.3,0,.6,0,.8,.2c.3,.1,.5,.3,.7,.5c.2,.2,.4,.4,.5,.7c.1,.3,.2,.6,.2,.9c0,.3,-.1,.6,-.2,.9c-.1,.3,-.3,.5,-.5,.8c-.2,.2,-.4,.3,-.7,.4c-.2,.2,-.5,.2,-.8,.2c-.4,0,-.7,0,-.9,-.2c-.3,-.1,-.6,-.2,-.8,-.4c-.1,-.3,-.3,-.5,-.4,-.8c-.1,-.3,-.2,-.6,-.2,-.9c0,-.3,.1,-.6,.2,-.9Z" class="g0_1" />

</svg>
